<svg version="1.1" id="OBJECTS" xmlns="http://www.w3.org/2000/svg" xmlns:xlink="http://www.w3.org/1999/xlink" x="0px" y="0px"
                                    viewBox="0 0 581 489" style="enable-background:new 0 0 581 489;" xml:space="preserve">
                                <style type="text/css">
                                    .a1st0{fill:#8AC74B;}
                                    .a1st1{fill:#967DFF;}
                                    .a1st2{fill:#ECB842;}
                                    .a1st3{fill:#231F20;}
                                </style>
                                <g>
                                    <path class="a1st0" d="M227.7,407.6c10.2,3.9,18,13.8,22.9,25.1c3.3,7.9,4.9,16.2,3.3,24.6c-1.6,8.8-7,16.7-13.9,21.1
                                        c-18.4,11.8-48.8,3.9-51.6-24.1C185.5,427.3,203.5,397.8,227.7,407.6z"/>
                                    <ellipse class="a1st1" cx="46.2" cy="362.9" rx="28.3" ry="33.9"/>
                                    <path class="a1st1" d="M50.7,150.6c-2.5,5.9-4.5,11.3-6.1,16.7c-4.9,15.2-6.6,32.4-3.3,48.2c1.6,7.4,4.5,15.2,10.7,18.2
                                        c7.4,3.9,16-2,21.3-8.8c9-12.3,11.9-27.5,16-42.3c4.9-18.2,10.7-35.9,17.6-53.1c2-4.9,4.1-10.3,2-15.2c-5.7-12.8-26.2-3.9-33.2,1.5
                                        C65,124.5,56.8,137.3,50.7,150.6z"/>
                                    <path class="a1st2" d="M125.3,129.4c61.9-89,163.5-67.8,181.5-61.9c19.3,6.9,52.4,27.5,62.3,57c11.1,32.9-9.4,68.3-13.9,76.2
                                        c-27.5,48.2-77,12.3-108.6,56c-20.1,27.5-2.9,56.5-31.1,95.3c-13.1,17.7-28.7,27.5-42.6,30c-29.5,5.4-61.9-40.8-74.6-79.6
                                        C79,245.4,92.9,175.6,125.3,129.4z"/>
                                </g>
                                <g>
                                    <path class="a1st0" d="M432.5,448.9c2.9,2.9,6.6,3.9,9.8,3.9c7,0.5,13.9-2.5,19.7-6.9c9.8-7.4,16.8-19.2,20.1-32.4
                                        c0.8-2.9,1.2-6.4,0.8-9.3c-2.9-18.7-32-17.7-41.8-8.8C431.3,405.2,421.1,437.6,432.5,448.9z"/>
                                    <path class="a1st1" d="M507.5,203.7c1.6,10.3,6.6,19.2,8.2,29.5c2.5,13.8-1.2,28-5.7,40.8c-3.3,9.3-7.4,20.6-2.5,28.5
                                        c4.5,7.4,13.9,6.9,20.9,3.9c15.2-5.9,27.5-20.1,35.6-36.9c8.2-16.7,11.9-35.9,13.9-54.6c1.2-13.8,1.6-28-1.2-41.3
                                        s-9.8-26-20.1-32.4C526.8,122.1,503,173.2,507.5,203.7z"/>
                                    <path class="a1st1" d="M478.4,106.3C501,157,490.3,239,458.8,303.9c-15.6,31.9-74.2,137.6-148.3,123.8
                                        c-44.7-7.9-95.9-39.8-91.8-117.5c2.9-14.7,9-37.8,24.6-57c31.1-38.3,63.9-15.7,96.7-49.1c33.6-34.4,18-93.9,52-121.4
                                        C426,54.7,466.5,80.3,478.4,106.3z"/>
                                    <ellipse class="a1st0" cx="409.2" cy="28.2" rx="19.3" ry="23.1"/>
                                </g>
                                <g>
                                    <path class="a1st3" d="M423.5,466.1c-2.5,0-4.9-1-6.6-2.5c-2.9-2.5-4.1-6.4-4.5-11.3c-0.4-10.3,6.1-25.1,14.3-39.8
                                        c-22.9,20.6-48.8,38.3-64.7,36.4c-5.3-0.5-9.8-3.4-12.3-8.4c-7.8-14.3,7.4-42.3,25.8-67.8c-4.1,2.9-8.2,6.4-12.7,9.3
                                        c-19.7,14.3-36.5,15.7-45.1,2.9c-9.4-13.8-4.5-38.3,11.1-59c63.1-79.1,83.2-132.7,61.5-162.2c-13.1-17.7-31.5-26.5-50.8-23.1
                                        c-18.8,2.9-36.9,16.7-52,38.3c2.5,5.9,4.9,12.3,7,18.7c10.7,36.4-2,50.1-6.1,53.1c-7.4,5.9-17.2,5.4-24.2-1.5
                                        c-8.2-8.4-9.4-23.1-2.9-39.3c4.9-11.8,10.2-22.6,16.4-32.4c-15.6-30.5-37.3-38.8-50.4-41.3c-24.6-3.9-49.6,7.9-62.3,29.5
                                        c-9.8,16.7-10.7,37.4-1.6,58c9.4,22.1,31.1,47.7,51.6,72.2c26.2,31,48.8,57.5,48.3,78.1c0,5.9-2,10.8-5.7,14.7
                                        c-13.1,14.7-37.3,2.5-59.4-15.7c18.8,28.5,34,60,22.5,75.2c-2.5,3.4-6.1,5.4-10.7,5.4h-0.4c-16.4,0-45.1-25.1-70.1-51.1
                                        c2,3.4,4.5,6.9,6.6,10.3c12.7,20.6,16,38.8,9,47.2c-12.7,14.7-46.3-12.3-72.1-36.9C11.3,354-18.2,227.7,19.5,153
                                        c1.2-2.5,3.7-2.9,5.7-1.5c2,1.5,2.5,4.4,1.2,6.9c-36.1,70.3-7,190.7,61.9,257.5c40.2,38.8,57.4,41.8,61,37.4
                                        c2.9-3.4,1.6-16.2-9.8-34.4c-23.8-38.3-48.3-71.8-48.8-72.2c-1.6-2-1.2-4.9,0.4-6.9c1.6-2,4.1-2,5.7,0
                                        C120.3,369.3,185.5,444,209.7,444c0,0,0,0,0.4,0c2.9,0,4.1-1.5,4.9-2c11.1-15.2-25.4-69.8-59-110.1c-4.9-5.4-8.2-9.3-9.4-10.8
                                        c-1.6-2-1.6-4.9,0-6.9c1.6-2,4.1-2,5.7,0c2.5,2.5,5.7,6.4,10.2,11.8c30.7,34.4,75.4,73.2,90.1,56.5c2-2.5,2.9-4.9,2.9-7.9
                                        c0-16.2-23.4-44.2-46.3-71.3c-21.3-25.1-43-51.1-53.3-74.7c-10.2-23.6-9.4-48.2,2.5-67.8c14.3-24.6,42.6-37.8,70.1-33.4
                                        c22.5,3.9,41.4,19.2,54.5,42.8c16-22.1,35.2-35.9,55.3-39.3c22.1-3.4,43.4,5.9,58.2,26.5c25,34.4,4.9,91.9-61,176.4
                                        c-13.9,18.2-16.4,37.4-11.1,45.7c5.7,8.4,18.4,6.4,34.4-5.4c23.8-17.2,39.7-32.4,49.6-42.3c4.9-5.9,9.4-10.3,11.9-13.3
                                        c1.6-2,4.1-1.5,5.7,0c1.6,2,1.6,4.9,0,6.9c-0.4,0.5-4.5,5.9-13.1,14.7c-45.5,52.6-60.6,87-56.1,95.3c0.8,1.5,2.5,3.4,6.1,3.9
                                        c20.5,2,68.8-39.8,94.6-71.8c1.6-2,2.9-3.4,3.7-4.4c1.6-2,4.1-2,5.7,0c1.6,2,1.6,4.9,0,6.9c-1.2,1.5-2,2.9-3.3,4.4
                                        c-14.8,19.2-43.8,60-43,77.7c0,2.5,0.8,3.4,1.6,3.9c2,1.5,13.1-2,34.4-21.1c29.5-26.5,58.2-66.3,76.6-105.2
                                        c17.2-36.4,34.4-91.9,20.9-149.9c-0.8-2.5,0.8-5.4,2.9-5.9c2-0.5,4.5,1,4.9,3.4c28.3,119.4-62.7,236.9-111,274.7
                                        C439.1,461.2,430.1,466.1,423.5,466.1z M282.2,187.4c-4.9,8.4-9.4,17.2-13.1,27c-4.9,11.8-4.5,22.1,0.8,27.5
                                        c4.1,3.9,9.8,4.4,13.9,1c7.8-6.4,8.6-22.1,2.9-41.8C285.5,196.3,283.8,191.9,282.2,187.4z"/>
                                </g>
                                    </svg>
