<svg version="1.1" id="logo" xmlns="http://www.w3.org/2000/svg" xmlns:xlink="http://www.w3.org/1999/xlink" x="0px" y="0px"
viewBox="0 0 579 492" style="enable-background:new 0 0 579 492;" xml:space="preserve">
<style type="text/css">
.a2st0{fill:#99BD14;}
.a2st1{fill:none;stroke:#000000;stroke-width:7.7314;stroke-linecap:round;stroke-linejoin:round;stroke-miterlimit:10;}
.a2st2{fill:none;stroke:#000000;stroke-width:7.7314;stroke-miterlimit:10;}
.a2st3{fill:#F4B610;}
</style>
<g>
<path class="a2st0" d="M274.4,95.8c-54.1-85-232.7-58-209.5,90.5c7.7,50.3,41.7,109,83.5,157.7c-5.4-9.3-8.5-20.9-6.2-31.7
    c1.5-12.4,10.1-27.1,24.7-26.3c7.7,0,13.9,5.4,17.8,12.4c3.9,7.7,7.7,14.7,13.9,20.1c3.9,3.9,8.5,7,13.1,10.1
    c3.9,2.3,7,5.4,10.8,7.7c-13.1-34.8-31.7-58.8-85.8-121.4c-31.7-36.3-5.4-57.2,17-44.8c-7.7-7.7,82,83.5,120.6,83.5
    S401.2,163.8,395,170c22.4-13.1,48.7,7.7,17,44.8c-54.9,63.4-73.4,87.4-86.6,123.7c4.6-3.9,9.3-7,13.9-10.8
    c4.6-3.1,9.3-6.2,13.1-10.1c6.2-5.4,10.1-13.1,13.9-20.1c3.1-7,9.3-12.4,17.8-12.4c14.7-0.8,23.2,13.9,24.7,26.3
    c1.5,11.6-0.8,22.4-6.2,31.7c41.7-48.7,75.8-107.5,83.5-157.7C507.9,37.8,329.3,10.7,274.4,95.8L274.4,95.8z M274.4,129
    c26.3,0,47.2,20.9,47.2,47.2s-20.9,47.2-47.2,47.2s-47.2-20.9-47.2-47.2S248.1,129,274.4,129L274.4,129z"/>
<path class="a2st1" d="M289.9,482.3c-24.7-45.6-7.7-92,34.8-127.6c30.2-24.7,37.9-23.2,51.8-51c9.3-19.3,34,14.7,6.2,44.1
    c-11.6,11.6-24.7,24-20.9,33.2c4.6,12.4,30.2,9.3,40.2,7c45.6-12.4,61.9-23.2,82.7-41c20.9-17.8,31.7-33.2,41-33.2
    c15.5,0.8,3.9,16.2,1.5,19.3c-13.9,22.4-51.8,68.8-92.8,82.7c-23.2,7.7-46.4,14.7-66.5,26.3"/>
<path class="a2st2" d="M430.6,371.8c3.1-7,6.2-13.1,8.5-19.3c10.1-28.6,22.4-32.5,27.1-28.6c3.9,3.1-3.1,20.1-10.8,37.1
    C448.4,364.8,439.8,367.9,430.6,371.8L430.6,371.8z"/>
<path class="a2st2" d="M459.2,358.6c4.6-7.7,9.3-16.2,11.6-23.2c10.8-27.8,23.2-32.5,27.8-27.8c3.1,2.3-1.5,13.9-7,26.3
    c-2.3,2.3-5.4,4.6-8.5,7.7C474.6,347.8,467.7,354,459.2,358.6L459.2,358.6z"/>
<path class="a2st2" d="M406.6,378.7c2.3-3.9,3.9-8.5,4.6-11.6c9.3-25.5,20.1-30.2,24.7-26.3c3.1,2.3-3.1,17-9.3,31.7
    C421.3,374.9,414.3,376.4,406.6,378.7L406.6,378.7z"/>
<path class="a2st1" d="M268.2,460.7c10.1-38.7-7.7-75.8-43.3-105.9c-30.2-24.7-37.9-23.2-51.8-51c-9.3-19.3-34,14.7-6.2,44.1
    c11.6,11.6,24.7,24,20.9,33.2c-4.6,12.4-30.2,9.3-40.2,7c-45.6-12.4-61.9-23.2-82.7-41s-31.7-33.2-41-33.2
    c-15.5,0.8-3.9,16.2-1.5,19.3c13.9,22.4,51.8,68.8,92.8,82.7c24,8.5,48.7,15.5,69.6,27.8"/>
<path class="a2st2" d="M119,371.8c-3.1-7-6.2-13.1-8.5-19.3c-10.1-28.6-22.4-32.5-27.1-28.6c-3.9,3.1,3.1,20.1,10.8,37.1
    C101.2,364.8,108.9,367.9,119,371.8L119,371.8z"/>
<path class="a2st2" d="M90.4,358.6c-4.6-7.7-9.3-16.2-11.6-23.2C68,307.6,55.6,303,51,307.6c-3.1,2.3,1.5,13.9,7,26.3
    c2.3,2.3,5.4,4.6,8.5,7.7C74.2,347.8,81.9,354,90.4,358.6L90.4,358.6z"/>
<path class="a2st2" d="M143,378.7c-2.3-3.9-3.9-8.5-4.6-11.6c-9.3-25.5-20.1-30.2-24.7-26.3c-3.1,2.3,3.1,17,9.3,31.7
    C128.3,374.9,135.2,376.4,143,378.7L143,378.7z"/>
</g>
<path class="a2st3" d="M4.6,146C3.8,150.7,3,156.1,3,159.9c-0.8,12.4,1.5,25.5,8.5,36.3c3.1,5.4,7.7,10.1,13.1,10.8
c7.7,0.8,13.9-6.2,17-12.4c5.4-11.6,4.6-23.2,4.6-35.6c0-14.7,1.5-29.4,3.9-44.1c0.8-3.9,0.8-8.5-1.5-11.6
c-7.7-7.7-24,4.6-28.6,10.1C11.5,122.8,6.9,134.4,4.6,146z"/>
<path class="a2st3" d="M497.8,115.1c2.3,9.3,8.5,17,11.6,26.3c3.9,12.4,1.5,26.3-3.1,38.7c-3.1,9.3-6.2,20.1,0,27.1
c5.4,6.2,16.2,4.6,24,1.5c16.2-7.7,29.4-21.6,36.3-37.9s10.1-34.8,10.8-52.6c0-13.1-0.8-26.3-5.4-38.7
c-4.6-12.4-13.1-23.2-25.5-28.6C512.5,37,490.1,87.3,497.8,115.1z"/>
<path class="a2st0" d="M51.7,243.4c8.5,3.1,15.5,10.1,19.3,17.8c2.3,5.4,3.9,11.6,3.1,17.8c-1.5,6.2-6.2,11.6-11.6,14.7
c-15.5,8.5-41.7,3.1-44.1-17C16.2,257.4,30.9,236.5,51.7,243.4z"/>
<path class="a2st0" d="M487,285.2c3.1,2.3,6.2,3.1,10.1,3.1c7,0,13.9-2.3,20.1-6.2c10.1-6.2,17-16.2,20.1-27.1
c0.8-2.3,1.5-5.4,0.8-7.7c-3.1-15.5-32.5-15.5-42.5-7.7C485.5,248.1,475.4,275.1,487,285.2z"/>
<circle class="a2st0" cx="245.8" cy="26.2" r="22.4"/>
</svg>
