<svg version="1.1" id="OBJECTS" xmlns="http://www.w3.org/2000/svg" xmlns:xlink="http://www.w3.org/1999/xlink" x="0px" y="0px"
                                    viewBox="0 0 858 495" style="enable-background:new 0 0 858 495;" xml:space="preserve">
                            <style type="text/css">
                                .a3st0{clip-path:url(#SVGID_2_);}
                                .a3st1{fill:#ECB731;}
                                .a3st2{fill:#FFFFFF;}
                                .a3st3{fill:#9177FF;}
                            </style>
                            <g>
                                <g>
                                    <g>
                                        <defs>
                                            <path id="SVGID_1_" d="M821,79.8C786.5,29.5,722.8,4.4,661.3,5.5c-60.8,1.2-119.3,25.7-172,57.3c-9.4,5.3-17.5,11.7-24.6,18.1
                                                c-7-6.4-15.2-12.9-24.6-18.7c-52.1-31.6-110-56.7-171.4-58.5C208,2,143.7,26.6,109.1,76.9c-29.2,42.7-34.5,99.4-19.9,149.2
                                                s47.4,92.4,87.2,125.8c39.8,33.3,86,57.9,133.4,79c17,7.6,34.5,15.2,52.1,22.2c32.8,12.9,66.7,23.4,101.8,29.2
                                                c35.1-5.8,69-15.8,101.8-28.7c17.5-6.4,35.1-14,52.1-21.6c47.4-21.1,93.6-45,134-78.4c39.8-32.8,73.1-75.5,88.3-125.2
                                                C855,179.3,850.3,122.5,821,79.8z"/>
                                        </defs>
                                        <clipPath id="SVGID_2_">
                                            <use xlink:href="#SVGID_1_"  style="overflow:visible;"/>
                                        </clipPath>
                                        <g class="a3st0">
                                            <g>
                                                <path class="a3st1" d="M826.3,79.8C791.8,28.9,728,4.4,667.2,5.5c-60.8,1.2-119.3,25.7-172,57.3c-9.4,5.3-17.5,11.7-24.6,18.1
                                                    c-7-6.4-15.2-12.9-24.6-18.7c-52.6-31.6-110.6-56.7-172-58.5C213.3,2,148.9,26.6,114.4,76.9c-29.2,42.7-34.5,99.4-19.9,149.2
                                                    s47.4,92.4,87.2,125.8c12.3,10.5,25.2,19.9,39.2,28.7c0-6.4-0.6-12.3-2.3-18.7c-2.3-7-7-13.5-11.7-19.9
                                                    c-14-19.9-28.7-39.8-42.7-59.7c-22.2-31-45-64.3-46.8-102.4c-0.6-9.9,3.5-22.2,13.5-22.2c4.7,0,8.2,2.9,11.7,5.8
                                                    c17.5,15.2,33.9,42.1,49.7,59.1s31.6,29.2,52.6,38c21.6,8.8,47.4,3.5,67.3-9.4c31.6-20.5,35.7-66.1,62.6-91.8
                                                    c4.1-3.5,8.8-7,14-8.2s11.7,1.2,14,5.8c1.8,2.9,1.8,5.8,1.8,8.8c0,1.8,4.7,31,2.9,43.9c-1.8,14.6-1.8,29.2,0.6,43.9
                                                    c1.8,11.1,4.1,21.6,9.9,31c7.6,12.3,21.1,22.2,36.3,25.7c4.7,1.2,9.9,1.8,14.6,1.8s9.9-0.6,14.6-1.8
                                                    c15.2-3.5,28.7-13.5,36.3-25.7c5.8-9.4,8.8-20.5,10.5-31c2.3-14.6,2.3-29.2,1.2-43.9c-1.2-11.7,1.2-40.4,1.2-43.3
                                                    c0-2.9,0-6.4,1.8-8.8c2.9-4.7,8.8-6.4,14-5.8c5.3,1.2,9.9,4.7,14,8.2c26.9,26.3,31,71.4,62,92.4c19.3,12.9,45.6,18.1,66.7,9.9
                                                    c21.6-8.2,36.9-20.5,53.2-37.4c15.8-17,32.8-43.9,50.3-59.1c3.5-2.9,7-5.8,11.7-5.8c9.9,0,13.5,12.9,13.5,22.2
                                                    c-1.8,38-25.2,70.8-47.4,101.8c-14.6,19.9-28.7,39.8-43.3,59.1c-4.7,6.4-9.4,12.3-11.7,19.9c-2.3,5.8-2.9,12.3-2.9,18.7
                                                    c14-8.8,28.1-18.7,40.9-29.2c39.8-32.8,73.1-75.5,88.3-125.2C860.2,179.3,855.5,122.5,826.3,79.8z"/>

                                                    <ellipse transform="matrix(4.173204e-03 -1 1 4.173204e-03 92.5612 443.8626)" class="a3st2" cx="269.1" cy="175.5" rx="48" ry="48"/>
                                                <path class="a3st1" d="M411,357.1c-13.5-27.5-30.4-49.7-40.4-77.2c-8.2,12.9-17,25.7-22.2,39.8c-15.2,38.6-8.8,81.3-8.2,122.3
                                                    c8.8,3.5,18.1,7.6,26.9,11.1c18.7,7,37.4,13.5,56.2,18.7C429.7,433.1,428.5,392.8,411,357.1z"/>
                                                <path class="a3st1" d="M588.8,322c-5.3-13.5-13.5-25.7-21.1-38c-9.9,25.7-26.3,47.4-39.8,74.3c-17.5,35.1-19.3,75.5-12.9,114.1
                                                    c18.7-5.3,37.4-11.1,55.6-18.1c8.8-2.9,17-6.4,25.7-9.9C597,402.7,603.4,360,588.8,322z"/>
                                            </g>

                                                <ellipse transform="matrix(4.167103e-03 -1 1 4.167103e-03 497.5136 853.432)" class="a3st2" cx="677.3" cy="176.9" rx="48" ry="48"/>

                                                <ellipse transform="matrix(4.167587e-03 -1 1 4.167587e-03 225.032 712.3478)" class="a3st2" cx="470.2" cy="243.2" rx="43.9" ry="43.9"/>
                                        </g>
                                    </g>
                                </g>
                            </g>
                            <path class="a3st3" d="M146,402.1c2.3,2.9,5.3,5.3,7.6,7.6c7.6,6.4,16.4,10.5,25.7,11.7c4.7,0.6,9.4,0,12.3-3.5
                                c3.5-4.1,2.9-11.1,0-15.8c-4.7-8.2-12.3-13.5-19.3-18.7c-8.8-7-17-14-25.2-22.2c-2.3-2.3-4.7-4.7-7.6-4.1c-8.2,1.2-8.2,16.4-7,22.2
                                C134.9,388.1,139.6,395.7,146,402.1z"/>
                            <path class="a3st3" d="M79.3,112.6c2.3-8.2,1.2-17.5,2.9-26.3c2.3-11.7,10.5-21.1,19.9-28.7c6.4-5.8,14-12.9,12.3-21.1
                                c-1.8-7.6-10.5-11.1-18.1-11.7c-16.4-1.8-32.2,4.1-45.6,13.5S27.3,60.5,18.5,74.6C12,84.5,6.8,95,5,106.7s0,24,7,33.3
                                C32.5,167,72.3,138.3,79.3,112.6z"/>
                            <path class="a3st3" d="M837.4,298.6c5.8,1.8,11.1,7,13.5,12.9c1.8,4.1,2.9,8.2,1.8,12.3c-1.2,4.7-4.1,8.2-8.2,10.5
                                c-11.1,5.8-29.2,1.8-31-12.3C812.3,308.6,822.8,293.9,837.4,298.6z"/>
                            <path class="a3st3" d="M823.4,354.2c-3.5-2.9-8.2-4.1-12.3-4.7c-8.8-0.6-17.5,2.3-25.2,7c-12.3,7.6-22.2,19.9-26.3,33.9
                                c-1.2,2.9-1.8,6.4-1.2,9.9c3.5,19.9,40.4,19.9,53.2,10.5C823.9,400.4,837.4,366.5,823.4,354.2z"/>
                                    </svg>
