<svg version="1.1" id="Isolation_Mode" xmlns="http://www.w3.org/2000/svg" xmlns:xlink="http://www.w3.org/1999/xlink" x="0px"
                                            y="0px" viewBox="0 0 120.9 107" style="enable-background:new 0 0 120.9 107;" xml:space="preserve">
                                    <style type="text/css">
                                        .a4st0{fill:#9177FF;}
                                        .a4st1{fill:#FFFFFF;}
                                        .a4st2{fill:none;stroke:#FFFFFF;stroke-width:2.2818;stroke-linecap:round;stroke-linejoin:round;stroke-miterlimit:10;}
                                        .a4st3{fill:#A4BD32;}
                                        .a4st4{fill:#ECB731;}
                                    </style>
                                    <g>
                                        <g>

                                                <ellipse transform="matrix(3.877512e-03 -1 1 3.877512e-03 -20.7789 138.9281)" class="a4st0" cx="59.3" cy="79.9" rx="19.1" ry="19.1"/>

                                                <ellipse transform="matrix(3.847783e-03 -1 1 3.847783e-03 -23.4531 128.6307)" class="a4st1" cx="52.8" cy="76.1" rx="1.6" ry="1.6"/>

                                                <ellipse transform="matrix(3.878684e-03 -1 1 3.878684e-03 -10.0581 142.1818)" class="a4st1" cx="66.3" cy="76.1" rx="1.6" ry="1.6"/>
                                            <path class="a4st2" d="M52.7,85.1c1.3,2.6,4.1,4.3,7,4.2c2.8,0,5.4-1.7,6.7-4.2"/>
                                        </g>
                                        <g>

                                                <ellipse transform="matrix(0.7338 -0.6794 0.6794 0.7338 -20.1002 35.9561)" class="a4st3" cx="35.8" cy="43.6" rx="19.1" ry="19.1"/>
                                            <ellipse transform="matrix(0.7338 -0.6794 0.6794 0.7338 -23.1831 31.3998)" class="a4st1" cx="28.5" cy="45.3" rx="1.6" ry="1.6"/>
                                            <ellipse transform="matrix(0.7338 -0.6794 0.6794 0.7338 -14.3145 35.6886)" class="a4st1" cx="38.4" cy="36.1" rx="1.6" ry="1.6"/>
                                            <path class="a4st2" d="M34.5,52c2.8,1,5.9,0.4,8-1.7c2-2,2.8-4.9,2.1-7.6"/>
                                        </g>
                                        <g>
                                            <ellipse transform="matrix(0.685 -0.7285 0.7285 0.685 -5.7307 74.3655)" class="a4st4" cx="83.1" cy="43.8" rx="19.1" ry="19.1"/>
                                            <ellipse transform="matrix(0.685 -0.7285 0.7285 0.685 -4.6665 80.253)" class="a4st1" cx="90.5" cy="45.5" rx="1.6" ry="1.6"/>
                                            <ellipse transform="matrix(0.685 -0.7285 0.7285 0.685 -1.0265 70.1745)" class="a4st1" cx="80.6" cy="36.3" rx="1.6" ry="1.6"/>
                                            <path class="a4st2" d="M84.4,52.2c-2.8,1-5.9,0.3-8-1.7c-2-2-2.8-4.9-2-7.7"/>
                                        </g>
                                    </g>
                                    <path class="a4st0" d="M59.4,10.5c-0.7-2-1.5-3.9-2.7-5.6c-1.3-1.7-3-3-5.1-3.4c-3.4-0.6-7,1.8-8.3,5c-1.3,3.2-0.8,7,0.9,10.1
                                        s4.2,5.6,6.8,7.9c2.7,2.3,5.5,4.3,8,6.9c4.7-2.9,9.2-7.2,13-11.3c2.1-2.3,4.1-4.9,4.9-8c0.7-3.1-0.1-6.7-2.7-8.5
                                        c-2.5-1.7-6-1.3-8.6,0.2C62.9,5.3,61.3,8.1,59.4,10.5z"/>
                                    <path class="a4st3" d="M99.5,83.9c1.9,0.9,3.8,1.8,5.9,2.1c2.1,0.3,4.3,0,6-1.2c2.9-2,3.7-6.2,2.4-9.4c-1.3-3.2-4.4-5.5-7.8-6.6
                                        c-3.3-1.1-6.9-1-10.4-0.7c-3.5,0.3-7,0.8-10.5,0.8c-1.3,5.4-1.4,11.6-1.2,17.2c0.1,3.2,0.6,6.4,2.2,9.1c1.7,2.7,4.8,4.7,7.9,4.1
                                        c3-0.6,5.1-3.3,5.9-6.2C100.7,90,99.8,86.9,99.5,83.9z"/>
                                    <path class="a4st4" d="M18.7,83.6c-1.9,0.9-3.8,1.7-5.9,2c-2.1,0.3-4.3-0.1-6-1.3c-2.9-2-3.6-6.2-2.3-9.4c1.4-3.2,4.5-5.5,7.8-6.5
                                        c3.3-1,6.9-1,10.4-0.7c3.5,0.3,7,0.9,10.5,0.9c1.2,5.4,1.3,11.7,1.1,17.2c-0.2,3.2-0.6,6.4-2.3,9.1c-1.7,2.7-4.9,4.6-8,4
                                        c-3-0.6-5.1-3.4-5.9-6.3C17.4,89.7,18.3,86.6,18.7,83.6z"/>
                                    <path class="a4st0" d="M42.4,101.3c0.4,0.5,0.9,0.9,1.3,1.3c1.3,1.1,2.8,1.8,4.4,2c0.8,0.1,1.6,0,2.1-0.6c0.6-0.7,0.5-1.9,0-2.7
                                        c-0.8-1.4-2.1-2.3-3.3-3.2c-1.5-1.2-2.9-2.4-4.3-3.8c-0.4-0.4-0.8-0.8-1.3-0.7c-1.4,0.2-1.4,2.8-1.2,3.8
                                        C40.5,98.8,41.4,100.1,42.4,101.3z"/>
                                    <path class="a4st0" d="M14.3,37.8c0.4-1.4,0.2-3,0.5-4.5c0.4-2,1.8-3.6,3.4-4.9c1.1-1,2.4-2.2,2.1-3.6c-0.3-1.3-1.8-1.9-3.1-2
                                        c-2.8-0.3-5.5,0.7-7.8,2.3c-2.3,1.6-4,3.8-5.5,6.2c-1.1,1.7-2,3.5-2.3,5.5c-0.3,2,0,4.1,1.2,5.7C6.4,47.1,13.2,42.1,14.3,37.8z"/>
                                    <path class="a4st4" d="M93.7,25c-1-0.5-1.7-1.4-2.7-1.9c-1.3-0.7-2.9-0.9-4.4-0.8c-1.1,0-2.4,0.1-3-0.8c-0.5-0.7-0.1-1.7,0.5-2.4
                                        c1.3-1.4,3.2-2.2,5.3-2.5c2-0.3,4.1,0,6.2,0.4c1.5,0.3,2.9,0.8,4.2,1.6c1.2,0.8,2.2,2,2.5,3.3C102.9,25.8,96.6,26.6,93.7,25z"/>
                                    <path class="a4st0" d="M96.4,62.7c0-1.1,0.5-2.1,1.2-2.9c0.5-0.5,1.1-0.9,1.9-1c0.8-0.1,1.6,0.2,2.2,0.7c1.6,1.4,2,4.6-0.1,5.7
                                        C99.4,66.1,96.5,65.2,96.4,62.7z"/>
                                    <path class="a4st0" d="M106.1,61.6c-0.3,0.7-0.2,1.5,0,2.3c0.4,1.5,1.4,2.7,2.6,3.7c1.9,1.6,4.5,2.4,6.9,2.3c0.6,0,1.1-0.1,1.6-0.4
                                        c3-1.7,0.8-7.6-1.4-9.1C113.5,58.8,107.3,58.6,106.1,61.6z"/>
                                    </svg>
