<svg version="1.1" id="Isolation_Mode" xmlns="http://www.w3.org/2000/svg" xmlns:xlink="http://www.w3.org/1999/xlink" x="0px"
y="0px" viewBox="0 0 105.7 112.9" style="enable-background:new 0 0 105.7 112.9;" xml:space="preserve">
<style type="text/css">
.a5st0{fill:#A4BD32;}
.a5st1{clip-path:url(#SVGID_2_44);}
.a5st2{fill:#E3B42F;}
.a5st3{fill:#272425;stroke:#272425;stroke-width:0.5;stroke-miterlimit:10;}
</style>
<g>
<path class="a5st0" d="M104,45.6L55.2,2.2c-1.8-2-5-2-6.7,0.1L1.9,45.3c-2.4,2.9-0.4,7.3,3.4,7.3l5.2,0c0.9,0,1.7,0.7,1.6,1.7
l-0.2,53.2c0,2.5,2,4.5,4.4,4.5l73.1,0.3c2.5,0,4.5-2,4.5-4.4l0.2-52.4c0-1.4,1.1-2.5,2.5-2.5l4,0C104.5,53,106.5,48.5,104,45.6z"
/>
<g>
<defs>
    <path id="SVGID_1_44" d="M75.9,73.9L53.4,96.3L31,73.8c-7.1-6.3-7.7-16.7-2.5-22.9c5.8-6.9,17.9-7.5,25.1,0.5
        c6.1-6,15.1-6.9,20.9-3C81.7,53.3,83.5,65.6,75.9,73.9z"/>
</defs>
<use xlink:href="#SVGID_1_44"  style="overflow:visible;fill:#FFFFFF;"/>
<clipPath id="SVGID_2_44">
    <use xlink:href="#SVGID_1_44"  style="overflow:visible;"/>
</clipPath>
<g class="a5st1">
    <g>

            <ellipse transform="matrix(3.872967e-03 -1 1 3.872967e-03 -45.211 122.8509)" class="a5st2" cx="39.1" cy="84.1" rx="13.2" ry="6.5"/>

            <ellipse transform="matrix(3.877973e-03 -1 1 3.877973e-03 -24.7184 102.5946)" class="a5st2" cx="39.1" cy="63.7" rx="5.3" ry="5.3"/>
    </g>
    <g>

            <ellipse transform="matrix(3.880637e-03 -1 1 3.880637e-03 -40.8878 148.6593)" class="a5st2" cx="54.2" cy="94.9" rx="13.2" ry="6.5"/>

            <ellipse transform="matrix(3.868606e-03 -1 1 3.868606e-03 -20.3944 128.4044)" class="a5st2" cx="54.3" cy="74.4" rx="5.3" ry="5.3"/>
    </g>
    <g>

            <ellipse transform="matrix(3.872968e-03 -1 1 3.872968e-03 -15.1303 153.2833)" class="a5st2" cx="69.4" cy="84.2" rx="13.2" ry="6.5"/>

            <ellipse transform="matrix(3.877969e-03 -1 1 3.877969e-03 5.3622 133.027)" class="a5st2" cx="69.5" cy="63.8" rx="5.3" ry="5.3"/>
    </g>
</g>
</g>
</g>
<g>
<path class="a5st3" d="M57.1,106.9c-0.2,0-0.4-0.1-0.6-0.2c-0.3-0.3-0.4-0.7-0.1-1c9.1-9,12.6-13.3,19.3-23.7
c4.3-6.6,8.7-14.5,9.4-23c0.6-6.7-2.3-15-9.8-17.5c-3.7-1.2-8.2-0.9-12.2,0.9c-3.4,1.6-6.5,4.1-9.2,7.7c-0.1,0.2-0.3,0.4-0.4,0.6
c1.4,1.5,2.4,3.2,3,4.9c0.4,1.2,0.3,3.1-0.9,4.2c-0.6,0.6-1.4,0.8-2.3,0.6c-0.5-0.1-1.1-0.4-1.6-0.8c-2.6-2.3-2-5.8-0.2-8.7
c-2.6-2.5-6-4.4-9-5.7c-5.1-2.2-9.2-2.7-12.6-1.6c-6,2-7.7,8.9-7.3,14.2c1.1,15.6,12.1,28.8,25.3,43.1c0.3,0.3,0.2,0.8-0.1,1
c-0.4,0.3-0.9,0.2-1.2-0.1C33.4,87.2,22.2,73.9,21.1,57.8c-0.4-6.1,1.6-13.3,8.4-15.7c3.8-1.3,8.3-0.7,13.9,1.7
c3.8,1.6,6.8,3.5,9.1,5.6c0.1-0.1,0.1-0.1,0.2-0.2c2.8-3.7,6.1-6.5,9.8-8.1c4.4-2,9.5-2.4,13.5-1c6,2,11.7,8.6,10.9,18.9
c-0.7,8.8-5.3,16.9-9.6,23.6c-6.8,10.5-10.3,14.9-19.5,24C57.6,106.8,57.3,106.9,57.1,106.9z M52.8,52.1c-1.1,2.3-1.5,4.8,0.3,6.4
c0.3,0.2,0.5,0.4,0.7,0.4c0.3,0.1,0.5,0,0.7-0.2c0.6-0.5,0.8-1.8,0.5-2.8C54.5,54.5,53.8,53.2,52.8,52.1z"/>
</g>
</svg>
