<?xml version="1.0" encoding="utf-8"?>
<!-- Generator: Adobe Illustrator 21.1.0, SVG Export Plug-In . SVG Version: 6.00 Build 0)  -->
<svg version="1.1" id="OBJECTS" xmlns="http://www.w3.org/2000/svg" xmlns:xlink="http://www.w3.org/1999/xlink" x="0px" y="0px"
	 viewBox="0 0 94 35.8" style="enable-background:new 0 0 94 35.8;" xml:space="preserve">
<style type="text/css">
	.st0{fill:#92C841;}
	.st1{fill:#6485F9;}
	.st2{fill:#FFBC00;}
	.st3{fill:#FF3A69;}
	.st4{fill:#75C82D;}
</style>
<path class="st0" d="M296.5,115.1c20.2-0.1,37.1-14.2,41.6-33c-6.6,15.2-21.7,25.9-39.3,26.1c-10.2,0.1-19.5-3.4-27-9.2
	c-1.5-1.2-3.8-0.8-4.9,0.8l0,0c-0.9,1.4-0.7,3.3,0.6,4.4C275.3,111,285.4,115.1,296.5,115.1z"/>
<path class="st0" d="M260.6,100.3l-1.7-3.4c-0.1-0.2-0.3-0.3-0.5-0.4l-3.8-0.5c-0.5-0.1-0.8-0.7-0.4-1.1l2.7-2.7
	c0.2-0.2,0.2-0.4,0.2-0.6l-0.6-3.8c-0.1-0.5,0.5-1,0.9-0.7l3.4,1.8c0.2,0.1,0.5,0.1,0.7,0l3.4-1.8c0.5-0.3,1,0.1,1,0.7l-0.6,3.8
	c0,0.2,0,0.4,0.2,0.6l2.8,2.7c0.4,0.4,0.2,1-0.4,1.1l-3.8,0.6c-0.2,0-0.4,0.2-0.5,0.4l-1.7,3.4C261.6,100.8,260.9,100.8,260.6,100.3
	z"/>
<g>
	<circle class="st1" cx="1.5" cy="9.1" r="1.1"/>
	<circle class="st2" cx="9.4" cy="5.1" r="0.9"/>
	<circle class="st3" cx="16.3" cy="8.7" r="1.1"/>
	<circle class="st3" cx="9.3" cy="10.1" r="1"/>
	<circle class="st1" cx="13.9" cy="13.8" r="1"/>
	<circle class="st2" cx="6.3" cy="14.1" r="1"/>
</g>
<path class="st4" d="M45,34.3c20.2,0,37.2-13.9,41.8-32.7C80.2,16.8,65,27.4,47.4,27.4c-10.2,0-19.5-3.5-26.9-9.4
	c-1.5-1.2-3.8-0.9-4.9,0.8l0,0c-1,1.4-0.7,3.3,0.6,4.4C23.8,30.1,33.9,34.3,45,34.3z"/>
<path class="st4" d="M9.3,19.2l-1.7-3.4c-0.1-0.2-0.3-0.3-0.5-0.4l-3.8-0.6c-0.5-0.1-0.8-0.7-0.4-1.1l2.7-2.7
	c0.2-0.2,0.2-0.4,0.2-0.6L5.2,6.7C5.1,6.2,5.7,5.8,6.1,6l3.4,1.8c0.2,0.1,0.4,0.1,0.6,0L13.5,6c0.5-0.3,1,0.2,1,0.7l-0.6,3.8
	c0,0.2,0,0.4,0.2,0.6l2.7,2.7c0.4,0.4,0.2,1-0.4,1.1l-3.8,0.6c-0.2,0-0.4,0.2-0.5,0.4l-1.7,3.4C10.2,19.7,9.5,19.7,9.3,19.2z"/>
<g>
	<circle class="st1" cx="77.9" cy="11" r="1.1"/>
	<circle class="st2" cx="85.8" cy="7" r="0.9"/>
	<circle class="st3" cx="92.6" cy="10.6" r="1.1"/>
	<circle class="st3" cx="85.7" cy="12" r="1"/>
	<circle class="st1" cx="90.2" cy="15.8" r="1"/>
	<circle class="st2" cx="82.7" cy="16" r="1"/>
</g>
</svg>
