<?xml version="1.0" encoding="utf-8"?>
<!-- Generator: Adobe Illustrator 21.1.0, SVG Export Plug-In . SVG Version: 6.00 Build 0)  -->
<svg version="1.1" id="OBJECTS" xmlns="http://www.w3.org/2000/svg" xmlns:xlink="http://www.w3.org/1999/xlink" x="0px" y="0px"
	 viewBox="0 0 152 85" style="enable-background:new 0 0 152 85;" xml:space="preserve">
<style type="text/css">
	.st0{clip-path:url(#SVGID_2_);}
	.st1{fill:#E3B42F;}
	.st2{fill:#9177FF;}
</style>
<g>
	<g>
		<defs>
			<path id="SVGID_1_" d="M142.5,16.1c-5.9-8.6-16.8-12.9-27.3-12.7c-10.4,0.2-20.4,4.4-29.4,9.8c-1.6,0.9-3,2-4.2,3.1
				c-1.2-1.1-2.6-2.2-4.2-3.2c-8.9-5.4-18.9-9.7-29.3-10C37.7,2.8,26.7,7,20.8,15.6c-5,7.3-5.9,17-3.4,25.5
				c2.5,8.5,8.1,15.8,14.9,21.5c6.8,5.7,14.7,9.9,22.8,13.5c2.9,1.3,5.9,2.6,8.9,3.8c5.6,2.2,11.4,4,17.4,5c6-1,11.8-2.7,17.4-4.9
				c3-1.1,6-2.4,8.9-3.7c8.1-3.6,16-7.7,22.9-13.4c6.8-5.6,12.5-12.9,15.1-21.4C148.3,33.1,147.5,23.4,142.5,16.1z"/>
		</defs>
		<clipPath id="SVGID_2_">
			<use xlink:href="#SVGID_1_"  style="overflow:visible;"/>
		</clipPath>
		<g class="st0">
			<g>
				<path class="st1" d="M72.4,63.5c-2.3-4.7-5.2-8.5-6.9-13.2c-1.4,2.2-2.9,4.4-3.8,6.8C59.1,63.7,60.2,71,60.3,78
					c1.5,0.6,3.1,1.3,4.6,1.9c3.2,1.2,6.4,2.3,9.6,3.2C75.6,76.5,75.4,69.6,72.4,63.5z"/>
				<path class="st1" d="M102.8,57.5c-0.9-2.3-2.3-4.4-3.6-6.5c-1.7,4.4-4.5,8.1-6.8,12.7c-3,6-3.3,12.9-2.2,19.5
					c3.2-0.9,6.4-1.9,9.5-3.1c1.5-0.5,2.9-1.1,4.4-1.7C104.2,71.3,105.3,64,102.8,57.5z"/>
			</g>
			<path class="st1" d="M143.4,16.1c-5.9-8.6-16.8-12.9-27.3-12.7c-10.4,0.2-20.4,4.4-29.4,9.8c-1.6,0.9-3,2-4.2,3.1
				c-1.2-1.1-2.6-2.2-4.2-3.2C69.4,7.7,59.5,3.4,49,3.1C38.6,2.8,27.6,7,21.7,15.6c-5,7.3-5.9,17-3.4,25.5
				c2.5,8.5,8.1,15.8,14.9,21.5c2.1,1.8,4.3,3.4,6.7,4.9c0-1.1-0.1-2.1-0.4-3.2c-0.4-1.2-1.2-2.3-2-3.4c-2.4-3.4-4.9-6.8-7.3-10.2
				c-3.8-5.3-7.7-11-8-17.5c-0.1-1.7,0.6-3.8,2.3-3.8c0.8,0,1.4,0.5,2,1c3,2.6,5.8,7.2,8.5,10.1c2.7,2.9,5.4,5,9,6.5
				c3.7,1.5,8.1,0.6,11.5-1.6c5.4-3.5,6.1-11.3,10.7-15.7c0.7-0.6,1.5-1.2,2.4-1.4c0.9-0.2,2,0.2,2.4,1c0.3,0.5,0.3,1,0.3,1.5
				c0,0.3,0.8,5.3,0.5,7.5c-0.3,2.5-0.3,5,0.1,7.5c0.3,1.9,0.7,3.7,1.7,5.3c1.3,2.1,3.6,3.8,6.2,4.4c0.8,0.2,1.7,0.3,2.5,0.3
				c0.8,0,1.7-0.1,2.5-0.3c2.6-0.6,4.9-2.3,6.2-4.4c1-1.6,1.5-3.5,1.8-5.3c0.4-2.5,0.4-5,0.2-7.5c-0.2-2,0.2-6.9,0.2-7.4
				c0-0.5,0-1.1,0.3-1.5c0.5-0.8,1.5-1.1,2.4-1c0.9,0.2,1.7,0.8,2.4,1.4c4.6,4.5,5.3,12.2,10.6,15.8c3.3,2.2,7.8,3.1,11.4,1.7
				c3.7-1.4,6.3-3.5,9.1-6.4c2.7-2.9,5.6-7.5,8.6-10.1c0.6-0.5,1.2-1,2-1c1.7,0,2.3,2.2,2.3,3.8c-0.3,6.5-4.3,12.1-8.1,17.4
				c-2.5,3.4-4.9,6.8-7.4,10.1c-0.8,1.1-1.6,2.1-2,3.4c-0.4,1-0.5,2.1-0.5,3.2c2.4-1.5,4.8-3.2,7-5c6.8-5.6,12.5-12.9,15.1-21.4
				C149.2,33.1,148.4,23.4,143.4,16.1z M48.1,40.6c-4.5,0-8.2-3.7-8.2-8.2c0-4.5,3.7-8.2,8.2-8.2c4.5,0,8.2,3.7,8.2,8.2
				C56.3,37,52.6,40.6,48.1,40.6z M82.4,51.6c-4.2,0-7.5-3.4-7.5-7.6c0-4.2,3.4-7.5,7.6-7.5c4.2,0,7.5,3.4,7.5,7.6
				C90,48.3,86.6,51.6,82.4,51.6z M117.9,40.9c-4.5,0-8.2-3.7-8.2-8.2c0-4.5,3.7-8.2,8.2-8.2c4.5,0,8.2,3.7,8.2,8.2
				C126.1,37.2,122.4,40.9,117.9,40.9z"/>
		</g>
	</g>
</g>
<path class="st2" d="M27.1,71.2c0.4,0.5,0.9,0.9,1.3,1.3c1.3,1.1,2.8,1.8,4.4,2c0.8,0.1,1.6,0,2.1-0.6c0.6-0.7,0.5-1.9,0-2.7
	c-0.8-1.4-2.1-2.3-3.3-3.2c-1.5-1.2-2.9-2.4-4.3-3.8c-0.4-0.4-0.8-0.8-1.3-0.7c-1.4,0.2-1.4,2.8-1.2,3.8
	C25.2,68.8,26,70.1,27.1,71.2z"/>
<path class="st2" d="M15.7,21.7c0.4-1.4,0.2-3,0.5-4.5c0.4-2,1.8-3.6,3.4-4.9c1.1-1,2.4-2.2,2.1-3.6c-0.3-1.3-1.8-1.9-3.1-2
	c-2.8-0.3-5.5,0.7-7.8,2.3s-4,3.8-5.5,6.2c-1.1,1.7-2,3.5-2.3,5.5c-0.3,2,0,4.1,1.2,5.7C7.7,31,14.5,26.1,15.7,21.7z"/>
<path class="st2" d="M145.3,53.5c1,0.3,1.9,1.2,2.3,2.2c0.3,0.7,0.5,1.4,0.3,2.1c-0.2,0.8-0.7,1.4-1.4,1.8c-1.9,1-5,0.3-5.3-2.1
	C141,55.2,142.8,52.7,145.3,53.5z"/>
<path class="st2" d="M142.9,63c-0.6-0.5-1.4-0.7-2.1-0.8c-1.5-0.1-3,0.4-4.3,1.2c-2.1,1.3-3.8,3.4-4.5,5.8c-0.2,0.5-0.3,1.1-0.2,1.7
	c0.6,3.4,6.9,3.4,9.1,1.8C143,70.9,145.3,65.1,142.9,63z"/>
</svg>
