<?xml version="1.0" encoding="utf-8"?>
<!-- Generator: Adobe Illustrator 21.1.0, SVG Export Plug-In . SVG Version: 6.00 Build 0)  -->
<svg version="1.1" id="Layer_1" xmlns="http://www.w3.org/2000/svg" xmlns:xlink="http://www.w3.org/1999/xlink" x="0px" y="0px"
	 viewBox="0 0 1184 752" style="enable-background:new 0 0 1184 752;" xml:space="preserve">
<style type="text/css">
	.st0{fill:#0E5524;}
</style>
<g>
	<g>
		<circle class="st0" cx="24.6" cy="508.8" r="1.5"/>
		<circle class="st0" cx="57.2" cy="508.8" r="1.5"/>
		<circle class="st0" cx="89.8" cy="508.8" r="1.5"/>
		<circle class="st0" cx="122.4" cy="508.8" r="1.5"/>
		<circle class="st0" cx="155" cy="508.8" r="1.5"/>
		<circle class="st0" cx="187.6" cy="508.8" r="1.5"/>
		<circle class="st0" cx="220.2" cy="508.8" r="1.5"/>
		<circle class="st0" cx="252.8" cy="508.8" r="1.5"/>
		<circle class="st0" cx="285.4" cy="508.8" r="1.5"/>
		<circle class="st0" cx="318" cy="508.8" r="1.5"/>
		<circle class="st0" cx="350.6" cy="508.8" r="1.5"/>
		<circle class="st0" cx="383.2" cy="508.8" r="1.5"/>
		<circle class="st0" cx="415.8" cy="508.8" r="1.5"/>
	</g>
	<g>
		<circle class="st0" cx="24.6" cy="476.2" r="1.5"/>
		<circle class="st0" cx="57.2" cy="476.2" r="1.5"/>
		<circle class="st0" cx="89.8" cy="476.2" r="1.5"/>
		<circle class="st0" cx="122.4" cy="476.2" r="1.5"/>
		<circle class="st0" cx="155" cy="476.2" r="1.5"/>
		<circle class="st0" cx="187.6" cy="476.2" r="1.5"/>
		<circle class="st0" cx="220.2" cy="476.2" r="1.5"/>
		<circle class="st0" cx="252.8" cy="476.2" r="1.5"/>
		<circle class="st0" cx="285.4" cy="476.2" r="1.5"/>
		<circle class="st0" cx="318" cy="476.2" r="1.5"/>
		<circle class="st0" cx="350.6" cy="476.2" r="1.5"/>
		<circle class="st0" cx="383.2" cy="476.2" r="1.5"/>
		<circle class="st0" cx="415.8" cy="476.2" r="1.5"/>
	</g>
	<g>
		<circle class="st0" cx="24.6" cy="443.6" r="1.5"/>
		<circle class="st0" cx="57.2" cy="443.6" r="1.5"/>
		<circle class="st0" cx="89.8" cy="443.6" r="1.5"/>
		<circle class="st0" cx="122.4" cy="443.6" r="1.5"/>
		<circle class="st0" cx="155" cy="443.6" r="1.5"/>
		<circle class="st0" cx="187.6" cy="443.6" r="1.5"/>
		<circle class="st0" cx="220.2" cy="443.6" r="1.5"/>
		<circle class="st0" cx="252.8" cy="443.6" r="1.5"/>
		<circle class="st0" cx="285.4" cy="443.6" r="1.5"/>
		<circle class="st0" cx="318" cy="443.6" r="1.5"/>
		<circle class="st0" cx="350.6" cy="443.6" r="1.5"/>
		<circle class="st0" cx="383.2" cy="443.6" r="1.5"/>
		<circle class="st0" cx="415.8" cy="443.6" r="1.5"/>
	</g>
	<g>
		<circle class="st0" cx="24.6" cy="411" r="1.5"/>
		<circle class="st0" cx="57.2" cy="411" r="1.5"/>
		<circle class="st0" cx="89.8" cy="411" r="1.5"/>
		<circle class="st0" cx="122.4" cy="411" r="1.5"/>
		<circle class="st0" cx="155" cy="411" r="1.5"/>
		<circle class="st0" cx="187.6" cy="411" r="1.5"/>
		<circle class="st0" cx="220.2" cy="411" r="1.5"/>
		<circle class="st0" cx="252.8" cy="411" r="1.5"/>
		<circle class="st0" cx="285.4" cy="411" r="1.5"/>
		<circle class="st0" cx="318" cy="411" r="1.5"/>
		<circle class="st0" cx="350.6" cy="411" r="1.5"/>
		<circle class="st0" cx="383.2" cy="411" r="1.5"/>
		<circle class="st0" cx="415.8" cy="411" r="1.5"/>
	</g>
	<g>
		<circle class="st0" cx="24.6" cy="378.4" r="1.5"/>
		<circle class="st0" cx="57.2" cy="378.4" r="1.5"/>
		<circle class="st0" cx="89.8" cy="378.4" r="1.5"/>
		<circle class="st0" cx="122.4" cy="378.4" r="1.5"/>
		<circle class="st0" cx="155" cy="378.4" r="1.5"/>
		<circle class="st0" cx="187.6" cy="378.4" r="1.5"/>
		<circle class="st0" cx="220.2" cy="378.4" r="1.5"/>
		<circle class="st0" cx="252.8" cy="378.4" r="1.5"/>
		<circle class="st0" cx="285.4" cy="378.4" r="1.5"/>
		<circle class="st0" cx="318" cy="378.4" r="1.5"/>
		<circle class="st0" cx="350.6" cy="378.4" r="1.5"/>
		<circle class="st0" cx="383.2" cy="378.4" r="1.5"/>
		<circle class="st0" cx="415.8" cy="378.4" r="1.5"/>
	</g>
	<g>
		<circle class="st0" cx="24.6" cy="345.8" r="1.5"/>
		<circle class="st0" cx="57.2" cy="345.8" r="1.5"/>
		<circle class="st0" cx="89.8" cy="345.8" r="1.5"/>
		<circle class="st0" cx="122.4" cy="345.8" r="1.5"/>
		<circle class="st0" cx="155" cy="345.8" r="1.5"/>
		<circle class="st0" cx="187.6" cy="345.8" r="1.5"/>
		<circle class="st0" cx="220.2" cy="345.8" r="1.5"/>
		<circle class="st0" cx="252.8" cy="345.8" r="1.5"/>
		<circle class="st0" cx="285.4" cy="345.8" r="1.5"/>
		<circle class="st0" cx="318" cy="345.8" r="1.5"/>
		<circle class="st0" cx="350.6" cy="345.8" r="1.5"/>
		<circle class="st0" cx="383.2" cy="345.8" r="1.5"/>
		<circle class="st0" cx="415.8" cy="345.8" r="1.5"/>
	</g>
	<g>
		<circle class="st0" cx="24.6" cy="313.2" r="1.5"/>
		<circle class="st0" cx="57.2" cy="313.2" r="1.5"/>
		<circle class="st0" cx="89.8" cy="313.2" r="1.5"/>
		<circle class="st0" cx="122.4" cy="313.2" r="1.5"/>
		<circle class="st0" cx="155" cy="313.2" r="1.5"/>
		<circle class="st0" cx="187.6" cy="313.2" r="1.5"/>
		<circle class="st0" cx="220.2" cy="313.2" r="1.5"/>
		<circle class="st0" cx="252.8" cy="313.2" r="1.5"/>
		<circle class="st0" cx="285.4" cy="313.2" r="1.5"/>
		<circle class="st0" cx="318" cy="313.2" r="1.5"/>
		<circle class="st0" cx="350.6" cy="313.2" r="1.5"/>
		<circle class="st0" cx="383.2" cy="313.2" r="1.5"/>
		<circle class="st0" cx="415.8" cy="313.2" r="1.5"/>
	</g>
	<g>
		<circle class="st0" cx="24.6" cy="280.6" r="1.5"/>
		<circle class="st0" cx="57.2" cy="280.6" r="1.5"/>
		<circle class="st0" cx="89.8" cy="280.6" r="1.5"/>
		<circle class="st0" cx="122.4" cy="280.6" r="1.5"/>
		<circle class="st0" cx="155" cy="280.6" r="1.5"/>
		<circle class="st0" cx="187.6" cy="280.6" r="1.5"/>
		<circle class="st0" cx="220.2" cy="280.6" r="1.5"/>
		<circle class="st0" cx="252.8" cy="280.6" r="1.5"/>
		<circle class="st0" cx="285.4" cy="280.6" r="1.5"/>
		<circle class="st0" cx="318" cy="280.6" r="1.5"/>
		<circle class="st0" cx="350.6" cy="280.6" r="1.5"/>
		<circle class="st0" cx="383.2" cy="280.6" r="1.5"/>
		<circle class="st0" cx="415.8" cy="280.6" r="1.5"/>
	</g>
	<g>
		<circle class="st0" cx="24.6" cy="248" r="1.5"/>
		<circle class="st0" cx="57.2" cy="248" r="1.5"/>
		<circle class="st0" cx="89.8" cy="248" r="1.5"/>
		<circle class="st0" cx="122.4" cy="248" r="1.5"/>
		<circle class="st0" cx="155" cy="248" r="1.5"/>
		<circle class="st0" cx="187.6" cy="248" r="1.5"/>
		<circle class="st0" cx="220.2" cy="248" r="1.5"/>
		<circle class="st0" cx="252.8" cy="248" r="1.5"/>
		<circle class="st0" cx="285.4" cy="248" r="1.5"/>
		<circle class="st0" cx="318" cy="248" r="1.5"/>
		<circle class="st0" cx="350.6" cy="248" r="1.5"/>
		<circle class="st0" cx="383.2" cy="248" r="1.5"/>
		<circle class="st0" cx="415.8" cy="248" r="1.5"/>
	</g>
	<g>
		<circle class="st0" cx="24.6" cy="215.4" r="1.5"/>
		<circle class="st0" cx="57.2" cy="215.4" r="1.5"/>
		<circle class="st0" cx="89.8" cy="215.4" r="1.5"/>
		<circle class="st0" cx="122.4" cy="215.4" r="1.5"/>
		<circle class="st0" cx="155" cy="215.4" r="1.5"/>
		<circle class="st0" cx="187.6" cy="215.4" r="1.5"/>
		<circle class="st0" cx="220.2" cy="215.4" r="1.5"/>
		<circle class="st0" cx="252.8" cy="215.4" r="1.5"/>
		<circle class="st0" cx="285.4" cy="215.4" r="1.5"/>
		<circle class="st0" cx="318" cy="215.4" r="1.5"/>
		<circle class="st0" cx="350.6" cy="215.4" r="1.5"/>
		<circle class="st0" cx="383.2" cy="215.4" r="1.5"/>
		<circle class="st0" cx="415.8" cy="215.4" r="1.5"/>
	</g>
	<g>
		<circle class="st0" cx="24.6" cy="182.8" r="1.5"/>
		<circle class="st0" cx="57.2" cy="182.8" r="1.5"/>
		<circle class="st0" cx="89.8" cy="182.8" r="1.5"/>
		<circle class="st0" cx="122.4" cy="182.8" r="1.5"/>
		<circle class="st0" cx="155" cy="182.8" r="1.5"/>
		<circle class="st0" cx="187.6" cy="182.8" r="1.5"/>
		<circle class="st0" cx="220.2" cy="182.8" r="1.5"/>
		<circle class="st0" cx="252.8" cy="182.8" r="1.5"/>
		<circle class="st0" cx="285.4" cy="182.8" r="1.5"/>
		<circle class="st0" cx="318" cy="182.8" r="1.5"/>
		<circle class="st0" cx="350.6" cy="182.8" r="1.5"/>
		<circle class="st0" cx="383.2" cy="182.8" r="1.5"/>
		<circle class="st0" cx="415.8" cy="182.8" r="1.5"/>
	</g>
	<g>
		<circle class="st0" cx="24.6" cy="150.2" r="1.5"/>
		<circle class="st0" cx="57.2" cy="150.2" r="1.5"/>
		<circle class="st0" cx="89.8" cy="150.2" r="1.5"/>
		<circle class="st0" cx="122.4" cy="150.2" r="1.5"/>
		<circle class="st0" cx="155" cy="150.2" r="1.5"/>
		<circle class="st0" cx="187.6" cy="150.2" r="1.5"/>
		<circle class="st0" cx="220.2" cy="150.2" r="1.5"/>
		<circle class="st0" cx="252.8" cy="150.2" r="1.5"/>
		<circle class="st0" cx="285.4" cy="150.2" r="1.5"/>
		<circle class="st0" cx="318" cy="150.2" r="1.5"/>
		<circle class="st0" cx="350.6" cy="150.2" r="1.5"/>
		<circle class="st0" cx="383.2" cy="150.2" r="1.5"/>
		<circle class="st0" cx="415.8" cy="150.2" r="1.5"/>
	</g>
	<g>
		<circle class="st0" cx="24.6" cy="117.6" r="1.5"/>
		<circle class="st0" cx="57.2" cy="117.6" r="1.5"/>
		<circle class="st0" cx="89.8" cy="117.6" r="1.5"/>
		<circle class="st0" cx="122.4" cy="117.6" r="1.5"/>
		<circle class="st0" cx="155" cy="117.6" r="1.5"/>
		<circle class="st0" cx="187.6" cy="117.6" r="1.5"/>
		<circle class="st0" cx="220.2" cy="117.6" r="1.5"/>
		<circle class="st0" cx="252.8" cy="117.6" r="1.5"/>
		<circle class="st0" cx="285.4" cy="117.6" r="1.5"/>
		<circle class="st0" cx="318" cy="117.6" r="1.5"/>
		<circle class="st0" cx="350.6" cy="117.6" r="1.5"/>
		<circle class="st0" cx="383.2" cy="117.6" r="1.5"/>
		<circle class="st0" cx="415.8" cy="117.6" r="1.5"/>
	</g>
	<g>
		<circle class="st0" cx="24.6" cy="85" r="1.5"/>
		<circle class="st0" cx="57.2" cy="85" r="1.5"/>
		<circle class="st0" cx="89.8" cy="85" r="1.5"/>
		<circle class="st0" cx="122.4" cy="85" r="1.5"/>
		<circle class="st0" cx="155" cy="85" r="1.5"/>
		<circle class="st0" cx="187.6" cy="85" r="1.5"/>
		<circle class="st0" cx="220.2" cy="85" r="1.5"/>
		<circle class="st0" cx="252.8" cy="85" r="1.5"/>
		<circle class="st0" cx="285.4" cy="85" r="1.5"/>
		<circle class="st0" cx="318" cy="85" r="1.5"/>
		<circle class="st0" cx="350.6" cy="85" r="1.5"/>
		<circle class="st0" cx="383.2" cy="85" r="1.5"/>
		<circle class="st0" cx="415.8" cy="85" r="1.5"/>
	</g>
	<g>
		<circle class="st0" cx="24.6" cy="52.4" r="1.5"/>
		<circle class="st0" cx="57.2" cy="52.4" r="1.5"/>
		<circle class="st0" cx="89.8" cy="52.4" r="1.5"/>
		<circle class="st0" cx="122.4" cy="52.4" r="1.5"/>
		<circle class="st0" cx="155" cy="52.4" r="1.5"/>
		<circle class="st0" cx="187.6" cy="52.4" r="1.5"/>
		<circle class="st0" cx="220.2" cy="52.4" r="1.5"/>
		<circle class="st0" cx="252.8" cy="52.4" r="1.5"/>
		<circle class="st0" cx="285.4" cy="52.4" r="1.5"/>
		<circle class="st0" cx="318" cy="52.4" r="1.5"/>
		<circle class="st0" cx="350.6" cy="52.4" r="1.5"/>
		<circle class="st0" cx="383.2" cy="52.4" r="1.5"/>
		<circle class="st0" cx="415.8" cy="52.4" r="1.5"/>
	</g>
	<g>
		<circle class="st0" cx="24.6" cy="19.8" r="1.5"/>
		<circle class="st0" cx="57.2" cy="19.8" r="1.5"/>
		<circle class="st0" cx="89.8" cy="19.8" r="1.5"/>
		<circle class="st0" cx="122.4" cy="19.8" r="1.5"/>
		<circle class="st0" cx="155" cy="19.8" r="1.5"/>
		<circle class="st0" cx="187.6" cy="19.8" r="1.5"/>
		<circle class="st0" cx="220.2" cy="19.8" r="1.5"/>
		<circle class="st0" cx="252.8" cy="19.8" r="1.5"/>
		<circle class="st0" cx="285.4" cy="19.8" r="1.5"/>
		<circle class="st0" cx="318" cy="19.8" r="1.5"/>
		<circle class="st0" cx="350.6" cy="19.8" r="1.5"/>
		<circle class="st0" cx="383.2" cy="19.8" r="1.5"/>
		<circle class="st0" cx="415.8" cy="19.8" r="1.5"/>
		<circle class="st0" cx="451.2" cy="508.8" r="1.5"/>
		<circle class="st0" cx="451.2" cy="476.2" r="1.5"/>
		<circle class="st0" cx="451.2" cy="443.6" r="1.5"/>
		<circle class="st0" cx="451.2" cy="411" r="1.5"/>
		<circle class="st0" cx="451.2" cy="378.4" r="1.5"/>
		<circle class="st0" cx="451.2" cy="345.8" r="1.5"/>
		<circle class="st0" cx="451.2" cy="313.2" r="1.5"/>
		<circle class="st0" cx="451.2" cy="280.6" r="1.5"/>
		<circle class="st0" cx="451.2" cy="248" r="1.5"/>
		<circle class="st0" cx="451.2" cy="215.4" r="1.5"/>
		<circle class="st0" cx="451.2" cy="182.8" r="1.5"/>
		<circle class="st0" cx="451.2" cy="150.2" r="1.5"/>
		<circle class="st0" cx="451.2" cy="117.6" r="1.5"/>
		<circle class="st0" cx="451.2" cy="85" r="1.5"/>
		<circle class="st0" cx="451.2" cy="52.4" r="1.5"/>
		<circle class="st0" cx="451.2" cy="19.8" r="1.5"/>
		<circle class="st0" cx="486.7" cy="508.8" r="1.5"/>
		<circle class="st0" cx="486.7" cy="476.2" r="1.5"/>
		<circle class="st0" cx="486.7" cy="443.6" r="1.5"/>
		<circle class="st0" cx="486.7" cy="411" r="1.5"/>
		<circle class="st0" cx="486.7" cy="378.4" r="1.5"/>
		<circle class="st0" cx="486.7" cy="345.8" r="1.5"/>
		<circle class="st0" cx="486.7" cy="313.2" r="1.5"/>
		<circle class="st0" cx="486.7" cy="280.6" r="1.5"/>
		<circle class="st0" cx="486.7" cy="248" r="1.5"/>
		<circle class="st0" cx="486.7" cy="215.4" r="1.5"/>
		<circle class="st0" cx="486.7" cy="182.8" r="1.5"/>
		<circle class="st0" cx="486.7" cy="150.2" r="1.5"/>
		<circle class="st0" cx="486.7" cy="117.6" r="1.5"/>
		<circle class="st0" cx="486.7" cy="85" r="1.5"/>
		<circle class="st0" cx="486.7" cy="52.4" r="1.5"/>
		<circle class="st0" cx="486.7" cy="19.8" r="1.5"/>
		<circle class="st0" cx="522.1" cy="508.8" r="1.5"/>
		<g>
			<circle class="st0" cx="24.6" cy="541.4" r="1.5"/>
			<circle class="st0" cx="57.2" cy="541.4" r="1.5"/>
			<circle class="st0" cx="89.8" cy="541.4" r="1.5"/>
			<circle class="st0" cx="122.4" cy="541.4" r="1.5"/>
			<circle class="st0" cx="155" cy="541.4" r="1.5"/>
			<circle class="st0" cx="187.6" cy="541.4" r="1.5"/>
			<circle class="st0" cx="220.2" cy="541.4" r="1.5"/>
			<circle class="st0" cx="252.8" cy="541.4" r="1.5"/>
			<circle class="st0" cx="285.4" cy="541.4" r="1.5"/>
			<circle class="st0" cx="318" cy="541.4" r="1.5"/>
			<circle class="st0" cx="350.6" cy="541.4" r="1.5"/>
			<circle class="st0" cx="383.2" cy="541.4" r="1.5"/>
			<circle class="st0" cx="415.8" cy="541.4" r="1.5"/>
		</g>
		<circle class="st0" cx="451.2" cy="541.4" r="1.5"/>
		<circle class="st0" cx="486.7" cy="541.4" r="1.5"/>
		<circle class="st0" cx="522.1" cy="541.4" r="1.5"/>
		<g>
			<circle class="st0" cx="24.6" cy="574" r="1.5"/>
			<circle class="st0" cx="57.2" cy="574" r="1.5"/>
			<circle class="st0" cx="89.8" cy="574" r="1.5"/>
			<circle class="st0" cx="122.4" cy="574" r="1.5"/>
			<circle class="st0" cx="155" cy="574" r="1.5"/>
			<circle class="st0" cx="187.6" cy="574" r="1.5"/>
			<circle class="st0" cx="220.2" cy="574" r="1.5"/>
			<circle class="st0" cx="252.8" cy="574" r="1.5"/>
			<circle class="st0" cx="285.4" cy="574" r="1.5"/>
			<circle class="st0" cx="318" cy="574" r="1.5"/>
			<circle class="st0" cx="350.6" cy="574" r="1.5"/>
			<circle class="st0" cx="383.2" cy="574" r="1.5"/>
			<circle class="st0" cx="415.8" cy="574" r="1.5"/>
		</g>
		<circle class="st0" cx="451.2" cy="574" r="1.5"/>
		<circle class="st0" cx="486.7" cy="574" r="1.5"/>
		<circle class="st0" cx="522.1" cy="574" r="1.5"/>
		<g>
			<circle class="st0" cx="24.6" cy="606.6" r="1.5"/>
			<circle class="st0" cx="57.2" cy="606.6" r="1.5"/>
			<circle class="st0" cx="89.8" cy="606.6" r="1.5"/>
			<circle class="st0" cx="122.4" cy="606.6" r="1.5"/>
			<circle class="st0" cx="155" cy="606.6" r="1.5"/>
			<circle class="st0" cx="187.6" cy="606.6" r="1.5"/>
			<circle class="st0" cx="220.2" cy="606.6" r="1.5"/>
			<circle class="st0" cx="252.8" cy="606.6" r="1.5"/>
			<circle class="st0" cx="285.4" cy="606.6" r="1.5"/>
			<circle class="st0" cx="318" cy="606.6" r="1.5"/>
			<circle class="st0" cx="350.6" cy="606.6" r="1.5"/>
			<circle class="st0" cx="383.2" cy="606.6" r="1.5"/>
			<circle class="st0" cx="415.8" cy="606.6" r="1.5"/>
		</g>
		<circle class="st0" cx="451.2" cy="606.6" r="1.5"/>
		<circle class="st0" cx="486.7" cy="606.6" r="1.5"/>
		<circle class="st0" cx="522.1" cy="606.6" r="1.5"/>
		<g>
			<circle class="st0" cx="24.6" cy="639.2" r="1.5"/>
			<circle class="st0" cx="57.2" cy="639.2" r="1.5"/>
			<circle class="st0" cx="89.8" cy="639.2" r="1.5"/>
			<circle class="st0" cx="122.4" cy="639.2" r="1.5"/>
			<circle class="st0" cx="155" cy="639.2" r="1.5"/>
			<circle class="st0" cx="187.6" cy="639.2" r="1.5"/>
			<circle class="st0" cx="220.2" cy="639.2" r="1.5"/>
			<circle class="st0" cx="252.8" cy="639.2" r="1.5"/>
			<circle class="st0" cx="285.4" cy="639.2" r="1.5"/>
			<circle class="st0" cx="318" cy="639.2" r="1.5"/>
			<circle class="st0" cx="350.6" cy="639.2" r="1.5"/>
			<circle class="st0" cx="383.2" cy="639.2" r="1.5"/>
			<circle class="st0" cx="415.8" cy="639.2" r="1.5"/>
		</g>
		<circle class="st0" cx="451.2" cy="639.2" r="1.5"/>
		<circle class="st0" cx="486.7" cy="639.2" r="1.5"/>
		<circle class="st0" cx="522.1" cy="639.2" r="1.5"/>
		<g>
			<circle class="st0" cx="24.6" cy="671.8" r="1.5"/>
			<circle class="st0" cx="57.2" cy="671.8" r="1.5"/>
			<circle class="st0" cx="89.8" cy="671.8" r="1.5"/>
			<circle class="st0" cx="122.4" cy="671.8" r="1.5"/>
			<circle class="st0" cx="155" cy="671.8" r="1.5"/>
			<circle class="st0" cx="187.6" cy="671.8" r="1.5"/>
			<circle class="st0" cx="220.2" cy="671.8" r="1.5"/>
			<circle class="st0" cx="252.8" cy="671.8" r="1.5"/>
			<circle class="st0" cx="285.4" cy="671.8" r="1.5"/>
			<circle class="st0" cx="318" cy="671.8" r="1.5"/>
			<circle class="st0" cx="350.6" cy="671.8" r="1.5"/>
			<circle class="st0" cx="383.2" cy="671.8" r="1.5"/>
			<circle class="st0" cx="415.8" cy="671.8" r="1.5"/>
		</g>
		<circle class="st0" cx="451.2" cy="671.8" r="1.5"/>
		<circle class="st0" cx="486.7" cy="671.8" r="1.5"/>
		<circle class="st0" cx="522.1" cy="671.8" r="1.5"/>
		<g>
			<circle class="st0" cx="24.6" cy="704.4" r="1.5"/>
			<circle class="st0" cx="57.2" cy="704.4" r="1.5"/>
			<circle class="st0" cx="89.8" cy="704.4" r="1.5"/>
			<circle class="st0" cx="122.4" cy="704.4" r="1.5"/>
			<circle class="st0" cx="155" cy="704.4" r="1.5"/>
			<circle class="st0" cx="187.6" cy="704.4" r="1.5"/>
			<circle class="st0" cx="220.2" cy="704.4" r="1.5"/>
			<circle class="st0" cx="252.8" cy="704.4" r="1.5"/>
			<circle class="st0" cx="285.4" cy="704.4" r="1.5"/>
			<circle class="st0" cx="318" cy="704.4" r="1.5"/>
			<circle class="st0" cx="350.6" cy="704.4" r="1.5"/>
			<circle class="st0" cx="383.2" cy="704.4" r="1.5"/>
			<circle class="st0" cx="415.8" cy="704.4" r="1.5"/>
		</g>
		<circle class="st0" cx="451.2" cy="704.4" r="1.5"/>
		<circle class="st0" cx="486.7" cy="704.4" r="1.5"/>
		<circle class="st0" cx="522.1" cy="704.4" r="1.5"/>
		<g>
			<circle class="st0" cx="24.6" cy="737" r="1.5"/>
			<circle class="st0" cx="57.2" cy="737" r="1.5"/>
			<circle class="st0" cx="89.8" cy="737" r="1.5"/>
			<circle class="st0" cx="122.4" cy="737" r="1.5"/>
			<circle class="st0" cx="155" cy="737" r="1.5"/>
			<circle class="st0" cx="187.6" cy="737" r="1.5"/>
			<circle class="st0" cx="220.2" cy="737" r="1.5"/>
			<circle class="st0" cx="252.8" cy="737" r="1.5"/>
			<circle class="st0" cx="285.4" cy="737" r="1.5"/>
			<circle class="st0" cx="318" cy="737" r="1.5"/>
			<circle class="st0" cx="350.6" cy="737" r="1.5"/>
			<circle class="st0" cx="383.2" cy="737" r="1.5"/>
			<circle class="st0" cx="415.8" cy="737" r="1.5"/>
		</g>
		<circle class="st0" cx="451.2" cy="737" r="1.5"/>
		<circle class="st0" cx="486.7" cy="737" r="1.5"/>
		<circle class="st0" cx="522.1" cy="737" r="1.5"/>
		<circle class="st0" cx="522.1" cy="476.2" r="1.5"/>
		<circle class="st0" cx="522.1" cy="443.6" r="1.5"/>
		<circle class="st0" cx="522.1" cy="411" r="1.5"/>
		<circle class="st0" cx="522.1" cy="378.4" r="1.5"/>
		<circle class="st0" cx="522.1" cy="345.8" r="1.5"/>
		<circle class="st0" cx="522.1" cy="313.2" r="1.5"/>
		<circle class="st0" cx="522.1" cy="280.6" r="1.5"/>
		<circle class="st0" cx="522.1" cy="248" r="1.5"/>
		<circle class="st0" cx="522.1" cy="215.4" r="1.5"/>
		<circle class="st0" cx="522.1" cy="182.8" r="1.5"/>
		<circle class="st0" cx="522.1" cy="150.2" r="1.5"/>
		<circle class="st0" cx="522.1" cy="117.6" r="1.5"/>
		<circle class="st0" cx="522.1" cy="85" r="1.5"/>
		<circle class="st0" cx="522.1" cy="52.4" r="1.5"/>
		<circle class="st0" cx="522.1" cy="19.8" r="1.5"/>
		<circle class="st0" cx="554.7" cy="508.8" r="1.5"/>
		<circle class="st0" cx="554.7" cy="541.4" r="1.5"/>
		<circle class="st0" cx="554.7" cy="574" r="1.5"/>
		<circle class="st0" cx="554.7" cy="606.6" r="1.5"/>
		<circle class="st0" cx="554.7" cy="639.2" r="1.5"/>
		<circle class="st0" cx="554.7" cy="671.8" r="1.5"/>
		<circle class="st0" cx="554.7" cy="704.4" r="1.5"/>
		<circle class="st0" cx="554.7" cy="737" r="1.5"/>
		<circle class="st0" cx="554.7" cy="476.2" r="1.5"/>
		<circle class="st0" cx="554.7" cy="443.6" r="1.5"/>
		<circle class="st0" cx="554.7" cy="411" r="1.5"/>
		<circle class="st0" cx="554.7" cy="378.4" r="1.5"/>
		<circle class="st0" cx="554.7" cy="345.8" r="1.5"/>
		<circle class="st0" cx="554.7" cy="313.2" r="1.5"/>
		<circle class="st0" cx="554.7" cy="280.6" r="1.5"/>
		<circle class="st0" cx="554.7" cy="248" r="1.5"/>
		<circle class="st0" cx="554.7" cy="215.4" r="1.5"/>
		<circle class="st0" cx="554.7" cy="182.8" r="1.5"/>
		<circle class="st0" cx="554.7" cy="150.2" r="1.5"/>
		<circle class="st0" cx="554.7" cy="117.6" r="1.5"/>
		<circle class="st0" cx="554.7" cy="85" r="1.5"/>
		<circle class="st0" cx="554.7" cy="52.4" r="1.5"/>
		<circle class="st0" cx="554.7" cy="19.8" r="1.5"/>
		<circle class="st0" cx="587.3" cy="508.8" r="1.5"/>
		<circle class="st0" cx="587.3" cy="541.4" r="1.5"/>
		<circle class="st0" cx="587.3" cy="574" r="1.5"/>
		<circle class="st0" cx="587.3" cy="606.6" r="1.5"/>
		<circle class="st0" cx="587.3" cy="639.2" r="1.5"/>
		<circle class="st0" cx="587.3" cy="671.8" r="1.5"/>
		<circle class="st0" cx="587.3" cy="704.4" r="1.5"/>
		<circle class="st0" cx="587.3" cy="737" r="1.5"/>
		<circle class="st0" cx="587.3" cy="476.2" r="1.5"/>
		<circle class="st0" cx="587.3" cy="443.6" r="1.5"/>
		<circle class="st0" cx="587.3" cy="411" r="1.5"/>
		<circle class="st0" cx="587.3" cy="378.4" r="1.5"/>
		<circle class="st0" cx="587.3" cy="345.8" r="1.5"/>
		<circle class="st0" cx="587.3" cy="313.2" r="1.5"/>
		<circle class="st0" cx="587.3" cy="280.6" r="1.5"/>
		<circle class="st0" cx="587.3" cy="248" r="1.5"/>
		<circle class="st0" cx="587.3" cy="215.4" r="1.5"/>
		<circle class="st0" cx="587.3" cy="182.8" r="1.5"/>
		<circle class="st0" cx="587.3" cy="150.2" r="1.5"/>
		<circle class="st0" cx="587.3" cy="117.6" r="1.5"/>
		<circle class="st0" cx="587.3" cy="85" r="1.5"/>
		<circle class="st0" cx="587.3" cy="52.4" r="1.5"/>
		<circle class="st0" cx="587.3" cy="19.8" r="1.5"/>
		<circle class="st0" cx="619.9" cy="508.8" r="1.5"/>
		<circle class="st0" cx="619.9" cy="541.4" r="1.5"/>
		<circle class="st0" cx="619.9" cy="574" r="1.5"/>
		<circle class="st0" cx="619.9" cy="606.6" r="1.5"/>
		<circle class="st0" cx="619.9" cy="639.2" r="1.5"/>
		<circle class="st0" cx="619.9" cy="671.8" r="1.5"/>
		<circle class="st0" cx="619.9" cy="704.4" r="1.5"/>
		<circle class="st0" cx="619.9" cy="737" r="1.5"/>
		<circle class="st0" cx="619.9" cy="476.2" r="1.5"/>
		<circle class="st0" cx="619.9" cy="443.6" r="1.5"/>
		<circle class="st0" cx="619.9" cy="411" r="1.5"/>
		<circle class="st0" cx="619.9" cy="378.4" r="1.5"/>
		<circle class="st0" cx="619.9" cy="345.8" r="1.5"/>
		<circle class="st0" cx="619.9" cy="313.2" r="1.5"/>
		<circle class="st0" cx="619.9" cy="280.6" r="1.5"/>
		<circle class="st0" cx="619.9" cy="248" r="1.5"/>
		<circle class="st0" cx="619.9" cy="215.4" r="1.5"/>
		<circle class="st0" cx="619.9" cy="182.8" r="1.5"/>
		<circle class="st0" cx="619.9" cy="150.2" r="1.5"/>
		<circle class="st0" cx="619.9" cy="117.6" r="1.5"/>
		<circle class="st0" cx="619.9" cy="85" r="1.5"/>
		<circle class="st0" cx="619.9" cy="52.4" r="1.5"/>
		<circle class="st0" cx="619.9" cy="19.8" r="1.5"/>
		<circle class="st0" cx="652.5" cy="508.8" r="1.5"/>
		<circle class="st0" cx="652.5" cy="541.4" r="1.5"/>
		<circle class="st0" cx="652.5" cy="574" r="1.5"/>
		<circle class="st0" cx="652.5" cy="606.6" r="1.5"/>
		<circle class="st0" cx="652.5" cy="639.2" r="1.5"/>
		<circle class="st0" cx="652.5" cy="671.8" r="1.5"/>
		<circle class="st0" cx="652.5" cy="704.4" r="1.5"/>
		<circle class="st0" cx="652.5" cy="737" r="1.5"/>
		<circle class="st0" cx="652.5" cy="476.2" r="1.5"/>
		<circle class="st0" cx="652.5" cy="443.6" r="1.5"/>
		<circle class="st0" cx="652.5" cy="411" r="1.5"/>
		<circle class="st0" cx="652.5" cy="378.4" r="1.5"/>
		<circle class="st0" cx="652.5" cy="345.8" r="1.5"/>
		<circle class="st0" cx="652.5" cy="313.2" r="1.5"/>
		<circle class="st0" cx="652.5" cy="280.6" r="1.5"/>
		<circle class="st0" cx="652.5" cy="248" r="1.5"/>
		<circle class="st0" cx="652.5" cy="215.4" r="1.5"/>
		<circle class="st0" cx="652.5" cy="182.8" r="1.5"/>
		<circle class="st0" cx="652.5" cy="150.2" r="1.5"/>
		<circle class="st0" cx="652.5" cy="117.6" r="1.5"/>
		<circle class="st0" cx="652.5" cy="85" r="1.5"/>
		<circle class="st0" cx="652.5" cy="52.4" r="1.5"/>
		<circle class="st0" cx="652.5" cy="19.8" r="1.5"/>
		<circle class="st0" cx="685.1" cy="508.8" r="1.5"/>
		<circle class="st0" cx="685.1" cy="541.4" r="1.5"/>
		<circle class="st0" cx="685.1" cy="574" r="1.5"/>
		<circle class="st0" cx="685.1" cy="606.6" r="1.5"/>
		<circle class="st0" cx="685.1" cy="639.2" r="1.5"/>
		<circle class="st0" cx="685.1" cy="671.8" r="1.5"/>
		<circle class="st0" cx="685.1" cy="704.4" r="1.5"/>
		<circle class="st0" cx="685.1" cy="737" r="1.5"/>
		<circle class="st0" cx="685.1" cy="476.2" r="1.5"/>
		<circle class="st0" cx="685.1" cy="443.6" r="1.5"/>
		<circle class="st0" cx="685.1" cy="411" r="1.5"/>
		<circle class="st0" cx="685.1" cy="378.4" r="1.5"/>
		<circle class="st0" cx="685.1" cy="345.8" r="1.5"/>
		<circle class="st0" cx="685.1" cy="313.2" r="1.5"/>
		<circle class="st0" cx="685.1" cy="280.6" r="1.5"/>
		<circle class="st0" cx="685.1" cy="248" r="1.5"/>
		<circle class="st0" cx="685.1" cy="215.4" r="1.5"/>
		<circle class="st0" cx="685.1" cy="182.8" r="1.5"/>
		<circle class="st0" cx="685.1" cy="150.2" r="1.5"/>
		<circle class="st0" cx="685.1" cy="117.6" r="1.5"/>
		<circle class="st0" cx="685.1" cy="85" r="1.5"/>
		<circle class="st0" cx="685.1" cy="52.4" r="1.5"/>
		<circle class="st0" cx="685.1" cy="19.8" r="1.5"/>
		<circle class="st0" cx="717.7" cy="508.8" r="1.5"/>
		<circle class="st0" cx="717.7" cy="541.4" r="1.5"/>
		<circle class="st0" cx="717.7" cy="574" r="1.5"/>
		<circle class="st0" cx="717.7" cy="606.6" r="1.5"/>
		<circle class="st0" cx="717.7" cy="639.2" r="1.5"/>
		<circle class="st0" cx="717.7" cy="671.8" r="1.5"/>
		<circle class="st0" cx="717.7" cy="704.4" r="1.5"/>
		<circle class="st0" cx="717.7" cy="737" r="1.5"/>
		<circle class="st0" cx="717.7" cy="476.2" r="1.5"/>
		<circle class="st0" cx="717.7" cy="443.6" r="1.5"/>
		<circle class="st0" cx="717.7" cy="411" r="1.5"/>
		<circle class="st0" cx="717.7" cy="378.4" r="1.5"/>
		<circle class="st0" cx="717.7" cy="345.8" r="1.5"/>
		<circle class="st0" cx="717.7" cy="313.2" r="1.5"/>
		<circle class="st0" cx="717.7" cy="280.6" r="1.5"/>
		<circle class="st0" cx="717.7" cy="248" r="1.5"/>
		<circle class="st0" cx="717.7" cy="215.4" r="1.5"/>
		<circle class="st0" cx="717.7" cy="182.8" r="1.5"/>
		<circle class="st0" cx="717.7" cy="150.2" r="1.5"/>
		<circle class="st0" cx="717.7" cy="117.6" r="1.5"/>
		<circle class="st0" cx="717.7" cy="85" r="1.5"/>
		<circle class="st0" cx="717.7" cy="52.4" r="1.5"/>
		<circle class="st0" cx="717.7" cy="19.8" r="1.5"/>
		<circle class="st0" cx="750.3" cy="508.8" r="1.5"/>
		<circle class="st0" cx="750.3" cy="541.4" r="1.5"/>
		<circle class="st0" cx="750.3" cy="574" r="1.5"/>
		<circle class="st0" cx="750.3" cy="606.6" r="1.5"/>
		<circle class="st0" cx="750.3" cy="639.2" r="1.5"/>
		<circle class="st0" cx="750.3" cy="671.8" r="1.5"/>
		<circle class="st0" cx="750.3" cy="704.4" r="1.5"/>
		<circle class="st0" cx="750.3" cy="737" r="1.5"/>
		<circle class="st0" cx="750.3" cy="476.2" r="1.5"/>
		<circle class="st0" cx="750.3" cy="443.6" r="1.5"/>
		<circle class="st0" cx="750.3" cy="411" r="1.5"/>
		<circle class="st0" cx="750.3" cy="378.4" r="1.5"/>
		<circle class="st0" cx="750.3" cy="345.8" r="1.5"/>
		<circle class="st0" cx="750.3" cy="313.2" r="1.5"/>
		<circle class="st0" cx="750.3" cy="280.6" r="1.5"/>
		<circle class="st0" cx="750.3" cy="248" r="1.5"/>
		<circle class="st0" cx="750.3" cy="215.4" r="1.5"/>
		<circle class="st0" cx="750.3" cy="182.8" r="1.5"/>
		<circle class="st0" cx="750.3" cy="150.2" r="1.5"/>
		<circle class="st0" cx="750.3" cy="117.6" r="1.5"/>
		<circle class="st0" cx="750.3" cy="85" r="1.5"/>
		<circle class="st0" cx="750.3" cy="52.4" r="1.5"/>
		<circle class="st0" cx="750.3" cy="19.8" r="1.5"/>
		<circle class="st0" cx="782.9" cy="508.8" r="1.5"/>
		<circle class="st0" cx="782.9" cy="541.4" r="1.5"/>
		<circle class="st0" cx="782.9" cy="574" r="1.5"/>
		<circle class="st0" cx="782.9" cy="606.6" r="1.5"/>
		<circle class="st0" cx="782.9" cy="639.2" r="1.5"/>
		<circle class="st0" cx="782.9" cy="671.8" r="1.5"/>
		<circle class="st0" cx="782.9" cy="704.4" r="1.5"/>
		<circle class="st0" cx="782.9" cy="737" r="1.5"/>
		<circle class="st0" cx="782.9" cy="476.2" r="1.5"/>
		<circle class="st0" cx="782.9" cy="443.6" r="1.5"/>
		<circle class="st0" cx="782.9" cy="411" r="1.5"/>
		<circle class="st0" cx="782.9" cy="378.4" r="1.5"/>
		<circle class="st0" cx="782.9" cy="345.8" r="1.5"/>
		<circle class="st0" cx="782.9" cy="313.2" r="1.5"/>
		<circle class="st0" cx="782.9" cy="280.6" r="1.5"/>
		<circle class="st0" cx="782.9" cy="248" r="1.5"/>
		<circle class="st0" cx="782.9" cy="215.4" r="1.5"/>
		<circle class="st0" cx="782.9" cy="182.8" r="1.5"/>
		<circle class="st0" cx="782.9" cy="150.2" r="1.5"/>
		<circle class="st0" cx="782.9" cy="117.6" r="1.5"/>
		<circle class="st0" cx="782.9" cy="85" r="1.5"/>
		<circle class="st0" cx="782.9" cy="52.4" r="1.5"/>
		<circle class="st0" cx="782.9" cy="19.8" r="1.5"/>
		<circle class="st0" cx="815.5" cy="508.8" r="1.5"/>
		<circle class="st0" cx="815.5" cy="541.4" r="1.5"/>
		<circle class="st0" cx="815.5" cy="574" r="1.5"/>
		<circle class="st0" cx="815.5" cy="606.6" r="1.5"/>
		<circle class="st0" cx="815.5" cy="639.2" r="1.5"/>
		<circle class="st0" cx="815.5" cy="671.8" r="1.5"/>
		<circle class="st0" cx="815.5" cy="704.4" r="1.5"/>
		<circle class="st0" cx="815.5" cy="737" r="1.5"/>
		<circle class="st0" cx="815.5" cy="476.2" r="1.5"/>
		<circle class="st0" cx="815.5" cy="443.6" r="1.5"/>
		<circle class="st0" cx="815.5" cy="411" r="1.5"/>
		<circle class="st0" cx="815.5" cy="378.4" r="1.5"/>
		<circle class="st0" cx="815.5" cy="345.8" r="1.5"/>
		<circle class="st0" cx="815.5" cy="313.2" r="1.5"/>
		<circle class="st0" cx="815.5" cy="280.6" r="1.5"/>
		<circle class="st0" cx="815.5" cy="248" r="1.5"/>
		<circle class="st0" cx="815.5" cy="215.4" r="1.5"/>
		<circle class="st0" cx="815.5" cy="182.8" r="1.5"/>
		<circle class="st0" cx="815.5" cy="150.2" r="1.5"/>
		<circle class="st0" cx="815.5" cy="117.6" r="1.5"/>
		<circle class="st0" cx="815.5" cy="85" r="1.5"/>
		<circle class="st0" cx="815.5" cy="52.4" r="1.5"/>
		<circle class="st0" cx="815.5" cy="19.8" r="1.5"/>
		<circle class="st0" cx="848.1" cy="508.8" r="1.5"/>
		<circle class="st0" cx="848.1" cy="541.4" r="1.5"/>
		<circle class="st0" cx="848.1" cy="574" r="1.5"/>
		<circle class="st0" cx="848.1" cy="606.6" r="1.5"/>
		<circle class="st0" cx="848.1" cy="639.2" r="1.5"/>
		<circle class="st0" cx="848.1" cy="671.8" r="1.5"/>
		<circle class="st0" cx="848.1" cy="704.4" r="1.5"/>
		<circle class="st0" cx="848.1" cy="737" r="1.5"/>
		<circle class="st0" cx="848.1" cy="476.2" r="1.5"/>
		<circle class="st0" cx="848.1" cy="443.6" r="1.5"/>
		<circle class="st0" cx="848.1" cy="411" r="1.5"/>
		<circle class="st0" cx="848.1" cy="378.4" r="1.5"/>
		<circle class="st0" cx="848.1" cy="345.8" r="1.5"/>
		<circle class="st0" cx="848.1" cy="313.2" r="1.5"/>
		<circle class="st0" cx="848.1" cy="280.6" r="1.5"/>
		<circle class="st0" cx="848.1" cy="248" r="1.5"/>
		<circle class="st0" cx="848.1" cy="215.4" r="1.5"/>
		<circle class="st0" cx="848.1" cy="182.8" r="1.5"/>
		<circle class="st0" cx="848.1" cy="150.2" r="1.5"/>
		<circle class="st0" cx="848.1" cy="117.6" r="1.5"/>
		<circle class="st0" cx="848.1" cy="85" r="1.5"/>
		<circle class="st0" cx="848.1" cy="52.4" r="1.5"/>
		<circle class="st0" cx="848.1" cy="19.8" r="1.5"/>
		<circle class="st0" cx="880.7" cy="508.8" r="1.5"/>
		<circle class="st0" cx="880.7" cy="541.4" r="1.5"/>
		<circle class="st0" cx="880.7" cy="574" r="1.5"/>
		<circle class="st0" cx="880.7" cy="606.6" r="1.5"/>
		<circle class="st0" cx="880.7" cy="639.2" r="1.5"/>
		<circle class="st0" cx="880.7" cy="671.8" r="1.5"/>
		<circle class="st0" cx="880.7" cy="704.4" r="1.5"/>
		<circle class="st0" cx="880.7" cy="737" r="1.5"/>
		<circle class="st0" cx="880.7" cy="476.2" r="1.5"/>
		<circle class="st0" cx="880.7" cy="443.6" r="1.5"/>
		<circle class="st0" cx="880.7" cy="411" r="1.5"/>
		<circle class="st0" cx="880.7" cy="378.4" r="1.5"/>
		<circle class="st0" cx="880.7" cy="345.8" r="1.5"/>
		<circle class="st0" cx="880.7" cy="313.2" r="1.5"/>
		<circle class="st0" cx="880.7" cy="280.6" r="1.5"/>
		<circle class="st0" cx="880.7" cy="248" r="1.5"/>
		<circle class="st0" cx="880.7" cy="215.4" r="1.5"/>
		<circle class="st0" cx="880.7" cy="182.8" r="1.5"/>
		<circle class="st0" cx="880.7" cy="150.2" r="1.5"/>
		<circle class="st0" cx="880.7" cy="117.6" r="1.5"/>
		<circle class="st0" cx="880.7" cy="85" r="1.5"/>
		<circle class="st0" cx="880.7" cy="52.4" r="1.5"/>
		<circle class="st0" cx="880.7" cy="19.8" r="1.5"/>
		<circle class="st0" cx="913.3" cy="508.8" r="1.5"/>
		<circle class="st0" cx="913.3" cy="541.4" r="1.5"/>
		<circle class="st0" cx="913.3" cy="574" r="1.5"/>
		<circle class="st0" cx="913.3" cy="606.6" r="1.5"/>
		<circle class="st0" cx="913.3" cy="639.2" r="1.5"/>
		<circle class="st0" cx="913.3" cy="671.8" r="1.5"/>
		<circle class="st0" cx="913.3" cy="704.4" r="1.5"/>
		<circle class="st0" cx="913.3" cy="737" r="1.5"/>
		<circle class="st0" cx="913.3" cy="476.2" r="1.5"/>
		<circle class="st0" cx="913.3" cy="443.6" r="1.5"/>
		<circle class="st0" cx="913.3" cy="411" r="1.5"/>
		<circle class="st0" cx="913.3" cy="378.4" r="1.5"/>
		<circle class="st0" cx="913.3" cy="345.8" r="1.5"/>
		<circle class="st0" cx="913.3" cy="313.2" r="1.5"/>
		<circle class="st0" cx="913.3" cy="280.6" r="1.5"/>
		<circle class="st0" cx="913.3" cy="248" r="1.5"/>
		<circle class="st0" cx="913.3" cy="215.4" r="1.5"/>
		<circle class="st0" cx="913.3" cy="182.8" r="1.5"/>
		<circle class="st0" cx="913.3" cy="150.2" r="1.5"/>
		<circle class="st0" cx="913.3" cy="117.6" r="1.5"/>
		<circle class="st0" cx="913.3" cy="85" r="1.5"/>
		<circle class="st0" cx="913.3" cy="52.4" r="1.5"/>
		<circle class="st0" cx="913.3" cy="19.8" r="1.5"/>
		<circle class="st0" cx="945.9" cy="508.8" r="1.5"/>
		<circle class="st0" cx="945.9" cy="541.4" r="1.5"/>
		<circle class="st0" cx="945.9" cy="574" r="1.5"/>
		<circle class="st0" cx="945.9" cy="606.6" r="1.5"/>
		<circle class="st0" cx="945.9" cy="639.2" r="1.5"/>
		<circle class="st0" cx="945.9" cy="671.8" r="1.5"/>
		<circle class="st0" cx="945.9" cy="704.4" r="1.5"/>
		<circle class="st0" cx="945.9" cy="737" r="1.5"/>
		<circle class="st0" cx="945.9" cy="476.2" r="1.5"/>
		<circle class="st0" cx="945.9" cy="443.6" r="1.5"/>
		<circle class="st0" cx="945.9" cy="411" r="1.5"/>
		<circle class="st0" cx="945.9" cy="378.4" r="1.5"/>
		<circle class="st0" cx="945.9" cy="345.8" r="1.5"/>
		<circle class="st0" cx="945.9" cy="313.2" r="1.5"/>
		<circle class="st0" cx="945.9" cy="280.6" r="1.5"/>
		<circle class="st0" cx="945.9" cy="248" r="1.5"/>
		<circle class="st0" cx="945.9" cy="215.4" r="1.5"/>
		<circle class="st0" cx="945.9" cy="182.8" r="1.5"/>
		<circle class="st0" cx="945.9" cy="150.2" r="1.5"/>
		<circle class="st0" cx="945.9" cy="117.6" r="1.5"/>
		<circle class="st0" cx="945.9" cy="85" r="1.5"/>
		<circle class="st0" cx="945.9" cy="52.4" r="1.5"/>
		<circle class="st0" cx="945.9" cy="19.8" r="1.5"/>
		<circle class="st0" cx="978.5" cy="508.8" r="1.5"/>
		<circle class="st0" cx="978.5" cy="541.4" r="1.5"/>
		<circle class="st0" cx="978.5" cy="574" r="1.5"/>
		<circle class="st0" cx="978.5" cy="606.6" r="1.5"/>
		<circle class="st0" cx="978.5" cy="639.2" r="1.5"/>
		<circle class="st0" cx="978.5" cy="671.8" r="1.5"/>
		<circle class="st0" cx="978.5" cy="704.4" r="1.5"/>
		<circle class="st0" cx="978.5" cy="737" r="1.5"/>
		<circle class="st0" cx="978.5" cy="476.2" r="1.5"/>
		<circle class="st0" cx="978.5" cy="443.6" r="1.5"/>
		<circle class="st0" cx="978.5" cy="411" r="1.5"/>
		<circle class="st0" cx="978.5" cy="378.4" r="1.5"/>
		<circle class="st0" cx="978.5" cy="345.8" r="1.5"/>
		<circle class="st0" cx="978.5" cy="313.2" r="1.5"/>
		<circle class="st0" cx="978.5" cy="280.6" r="1.5"/>
		<circle class="st0" cx="978.5" cy="248" r="1.5"/>
		<circle class="st0" cx="978.5" cy="215.4" r="1.5"/>
		<circle class="st0" cx="978.5" cy="182.8" r="1.5"/>
		<circle class="st0" cx="978.5" cy="150.2" r="1.5"/>
		<circle class="st0" cx="978.5" cy="117.6" r="1.5"/>
		<circle class="st0" cx="978.5" cy="85" r="1.5"/>
		<circle class="st0" cx="978.5" cy="52.4" r="1.5"/>
		<circle class="st0" cx="978.5" cy="19.8" r="1.5"/>
		<circle class="st0" cx="1011.1" cy="508.8" r="1.5"/>
		<circle class="st0" cx="1011.1" cy="541.4" r="1.5"/>
		<circle class="st0" cx="1011.1" cy="574" r="1.5"/>
		<circle class="st0" cx="1011.1" cy="606.6" r="1.5"/>
		<circle class="st0" cx="1011.1" cy="639.2" r="1.5"/>
		<circle class="st0" cx="1011.1" cy="671.8" r="1.5"/>
		<circle class="st0" cx="1011.1" cy="704.4" r="1.5"/>
		<circle class="st0" cx="1011.1" cy="737" r="1.5"/>
		<circle class="st0" cx="1011.1" cy="476.2" r="1.5"/>
		<circle class="st0" cx="1011.1" cy="443.6" r="1.5"/>
		<circle class="st0" cx="1011.1" cy="411" r="1.5"/>
		<circle class="st0" cx="1011.1" cy="378.4" r="1.5"/>
		<circle class="st0" cx="1011.1" cy="345.8" r="1.5"/>
		<circle class="st0" cx="1011.1" cy="313.2" r="1.5"/>
		<circle class="st0" cx="1011.1" cy="280.6" r="1.5"/>
		<circle class="st0" cx="1011.1" cy="248" r="1.5"/>
		<circle class="st0" cx="1011.1" cy="215.4" r="1.5"/>
		<circle class="st0" cx="1011.1" cy="182.8" r="1.5"/>
		<circle class="st0" cx="1011.1" cy="150.2" r="1.5"/>
		<circle class="st0" cx="1011.1" cy="117.6" r="1.5"/>
		<circle class="st0" cx="1011.1" cy="85" r="1.5"/>
		<circle class="st0" cx="1011.1" cy="52.4" r="1.5"/>
		<circle class="st0" cx="1011.1" cy="19.8" r="1.5"/>
		<circle class="st0" cx="1043.7" cy="508.8" r="1.5"/>
		<circle class="st0" cx="1043.7" cy="541.4" r="1.5"/>
		<circle class="st0" cx="1043.7" cy="574" r="1.5"/>
		<circle class="st0" cx="1043.7" cy="606.6" r="1.5"/>
		<circle class="st0" cx="1043.7" cy="639.2" r="1.5"/>
		<circle class="st0" cx="1043.7" cy="671.8" r="1.5"/>
		<circle class="st0" cx="1043.7" cy="704.4" r="1.5"/>
		<circle class="st0" cx="1043.7" cy="737" r="1.5"/>
		<circle class="st0" cx="1043.7" cy="476.2" r="1.5"/>
		<circle class="st0" cx="1043.7" cy="443.6" r="1.5"/>
		<circle class="st0" cx="1043.7" cy="411" r="1.5"/>
		<circle class="st0" cx="1043.7" cy="378.4" r="1.5"/>
		<circle class="st0" cx="1043.7" cy="345.8" r="1.5"/>
		<circle class="st0" cx="1043.7" cy="313.2" r="1.5"/>
		<circle class="st0" cx="1043.7" cy="280.6" r="1.5"/>
		<circle class="st0" cx="1043.7" cy="248" r="1.5"/>
		<circle class="st0" cx="1043.7" cy="215.4" r="1.5"/>
		<circle class="st0" cx="1043.7" cy="182.8" r="1.5"/>
		<circle class="st0" cx="1043.7" cy="150.2" r="1.5"/>
		<circle class="st0" cx="1043.7" cy="117.6" r="1.5"/>
		<circle class="st0" cx="1043.7" cy="85" r="1.5"/>
		<circle class="st0" cx="1043.7" cy="52.4" r="1.5"/>
		<circle class="st0" cx="1043.7" cy="19.8" r="1.5"/>
		<circle class="st0" cx="1076.3" cy="508.8" r="1.5"/>
		<circle class="st0" cx="1076.3" cy="541.4" r="1.5"/>
		<circle class="st0" cx="1076.3" cy="574" r="1.5"/>
		<circle class="st0" cx="1076.3" cy="606.6" r="1.5"/>
		<circle class="st0" cx="1076.3" cy="639.2" r="1.5"/>
		<circle class="st0" cx="1076.3" cy="671.8" r="1.5"/>
		<circle class="st0" cx="1076.3" cy="704.4" r="1.5"/>
		<circle class="st0" cx="1076.3" cy="737" r="1.5"/>
		<circle class="st0" cx="1076.3" cy="476.2" r="1.5"/>
		<circle class="st0" cx="1076.3" cy="443.6" r="1.5"/>
		<circle class="st0" cx="1076.3" cy="411" r="1.5"/>
		<circle class="st0" cx="1076.3" cy="378.4" r="1.5"/>
		<circle class="st0" cx="1076.3" cy="345.8" r="1.5"/>
		<circle class="st0" cx="1076.3" cy="313.2" r="1.5"/>
		<circle class="st0" cx="1076.3" cy="280.6" r="1.5"/>
		<circle class="st0" cx="1076.3" cy="248" r="1.5"/>
		<circle class="st0" cx="1076.3" cy="215.4" r="1.5"/>
		<circle class="st0" cx="1076.3" cy="182.8" r="1.5"/>
		<circle class="st0" cx="1076.3" cy="150.2" r="1.5"/>
		<circle class="st0" cx="1076.3" cy="117.6" r="1.5"/>
		<circle class="st0" cx="1076.3" cy="85" r="1.5"/>
		<circle class="st0" cx="1076.3" cy="52.4" r="1.5"/>
		<circle class="st0" cx="1076.3" cy="19.8" r="1.5"/>
		<circle class="st0" cx="1108.9" cy="508.8" r="1.5"/>
		<circle class="st0" cx="1108.9" cy="541.4" r="1.5"/>
		<circle class="st0" cx="1108.9" cy="574" r="1.5"/>
		<circle class="st0" cx="1108.9" cy="606.6" r="1.5"/>
		<circle class="st0" cx="1108.9" cy="639.2" r="1.5"/>
		<circle class="st0" cx="1108.9" cy="671.8" r="1.5"/>
		<circle class="st0" cx="1108.9" cy="704.4" r="1.5"/>
		<circle class="st0" cx="1108.9" cy="737" r="1.5"/>
		<circle class="st0" cx="1108.9" cy="476.2" r="1.5"/>
		<circle class="st0" cx="1108.9" cy="443.6" r="1.5"/>
		<circle class="st0" cx="1108.9" cy="411" r="1.5"/>
		<circle class="st0" cx="1108.9" cy="378.4" r="1.5"/>
		<circle class="st0" cx="1108.9" cy="345.8" r="1.5"/>
		<circle class="st0" cx="1108.9" cy="313.2" r="1.5"/>
		<circle class="st0" cx="1108.9" cy="280.6" r="1.5"/>
		<circle class="st0" cx="1108.9" cy="248" r="1.5"/>
		<circle class="st0" cx="1108.9" cy="215.4" r="1.5"/>
		<circle class="st0" cx="1108.9" cy="182.8" r="1.5"/>
		<circle class="st0" cx="1108.9" cy="150.2" r="1.5"/>
		<circle class="st0" cx="1108.9" cy="117.6" r="1.5"/>
		<circle class="st0" cx="1108.9" cy="85" r="1.5"/>
		<circle class="st0" cx="1108.9" cy="52.4" r="1.5"/>
		<circle class="st0" cx="1108.9" cy="19.8" r="1.5"/>
		<circle class="st0" cx="1141.5" cy="508.8" r="1.5"/>
		<circle class="st0" cx="1141.5" cy="541.4" r="1.5"/>
		<circle class="st0" cx="1141.5" cy="574" r="1.5"/>
		<circle class="st0" cx="1141.5" cy="606.6" r="1.5"/>
		<circle class="st0" cx="1141.5" cy="639.2" r="1.5"/>
		<circle class="st0" cx="1141.5" cy="671.8" r="1.5"/>
		<circle class="st0" cx="1141.5" cy="704.4" r="1.5"/>
		<circle class="st0" cx="1141.5" cy="737" r="1.5"/>
		<circle class="st0" cx="1141.5" cy="476.2" r="1.5"/>
		<circle class="st0" cx="1141.5" cy="443.6" r="1.5"/>
		<circle class="st0" cx="1141.5" cy="411" r="1.5"/>
		<circle class="st0" cx="1141.5" cy="378.4" r="1.5"/>
		<circle class="st0" cx="1141.5" cy="345.8" r="1.5"/>
		<circle class="st0" cx="1141.5" cy="313.2" r="1.5"/>
		<circle class="st0" cx="1141.5" cy="280.6" r="1.5"/>
		<circle class="st0" cx="1141.5" cy="248" r="1.5"/>
		<circle class="st0" cx="1141.5" cy="215.4" r="1.5"/>
		<circle class="st0" cx="1141.5" cy="182.8" r="1.5"/>
		<circle class="st0" cx="1141.5" cy="150.2" r="1.5"/>
		<circle class="st0" cx="1141.5" cy="117.6" r="1.5"/>
		<circle class="st0" cx="1141.5" cy="85" r="1.5"/>
		<circle class="st0" cx="1141.5" cy="52.4" r="1.5"/>
		<circle class="st0" cx="1141.5" cy="19.8" r="1.5"/>
		<circle class="st0" cx="1174.1" cy="508.8" r="1.5"/>
		<circle class="st0" cx="1174.1" cy="541.4" r="1.5"/>
		<circle class="st0" cx="1174.1" cy="574" r="1.5"/>
		<circle class="st0" cx="1174.1" cy="606.6" r="1.5"/>
		<circle class="st0" cx="1174.1" cy="639.2" r="1.5"/>
		<circle class="st0" cx="1174.1" cy="671.8" r="1.5"/>
		<circle class="st0" cx="1174.1" cy="704.4" r="1.5"/>
		<circle class="st0" cx="1174.1" cy="737" r="1.5"/>
		<circle class="st0" cx="1174.1" cy="476.2" r="1.5"/>
		<circle class="st0" cx="1174.1" cy="443.6" r="1.5"/>
		<circle class="st0" cx="1174.1" cy="411" r="1.5"/>
		<circle class="st0" cx="1174.1" cy="378.4" r="1.5"/>
		<circle class="st0" cx="1174.1" cy="345.8" r="1.5"/>
		<circle class="st0" cx="1174.1" cy="313.2" r="1.5"/>
		<circle class="st0" cx="1174.1" cy="280.6" r="1.5"/>
		<circle class="st0" cx="1174.1" cy="248" r="1.5"/>
		<circle class="st0" cx="1174.1" cy="215.4" r="1.5"/>
		<circle class="st0" cx="1174.1" cy="182.8" r="1.5"/>
		<circle class="st0" cx="1174.1" cy="150.2" r="1.5"/>
		<circle class="st0" cx="1174.1" cy="117.6" r="1.5"/>
		<circle class="st0" cx="1174.1" cy="85" r="1.5"/>
		<circle class="st0" cx="1174.1" cy="52.4" r="1.5"/>
		<circle class="st0" cx="1174.1" cy="19.8" r="1.5"/>
	</g>
</g>
</svg>
