<?xml version="1.0" encoding="utf-8"?>
<!-- Generator: Adobe Illustrator 21.1.0, SVG Export Plug-In . SVG Version: 6.00 Build 0)  -->
<svg version="1.1" id="Isolation_Mode" xmlns="http://www.w3.org/2000/svg" xmlns:xlink="http://www.w3.org/1999/xlink" x="0px"
	 y="0px" viewBox="0 0 296 480" style="enable-background:new 0 0 296 480;" xml:space="preserve">
<style type="text/css">
	.st0{fill:#C8C1E1;}
</style>
<g>
	<path class="st0" d="M140.5,417.6c0,0-11-24.6-38.9-21.5c-27.9,3.1-24.6,27.7-37.8,25.4c-13.3-2.3-31.9,0-35.8,15.4
		c-4,15.4-21.9,6.9-22.6,20c-0.7,13.1,20.6,22.4,45.1,10.8c24.6-11.6,36.5,9,71,5.3c34.5-3.7,38.8-8.3,59.2-6
		c20.4,2.3,19.9-13.9,10.7-24.7C182.1,431.5,144.5,432.5,140.5,417.6z"/>
</g>
<g>
	<path class="st0" d="M219.2,34.4c0,0-14.3-32-50.6-28c-36.2,4-31.9,36.1-49.2,33.1c-17.3-3-41.4,0-46.6,20c-5.2,20-28.5,9-29.3,26
		c-0.9,17,26.7,29.1,58.7,14c31.9-15,47.5,11.7,92.3,6.8c44.9-4.8,50.4-10.8,77-7.8c26.6,3,25.9-18.1,13.8-32.1
		C273.3,52.4,224.4,53.7,219.2,34.4z"/>
</g>
</svg>
