<?xml version="1.0" encoding="utf-8"?>
<!-- Generator: Adobe Illustrator 21.1.0, SVG Export Plug-In . SVG Version: 6.00 Build 0)  -->
<svg version="1.1" id="OBJECTS" xmlns="http://www.w3.org/2000/svg" xmlns:xlink="http://www.w3.org/1999/xlink" x="0px" y="0px"
	 viewBox="0 0 167 106.3" style="enable-background:new 0 0 167 106.3;" xml:space="preserve">
<style type="text/css">
	.st0{fill:#8AC74B;}
	.st1{fill:#967DFF;}
	.st2{fill:#F4F5F7;}
	.st3{fill:#F3B944;}
	.st4{fill:#947DFA;}
</style>
<g>
	<path class="st0" d="M60,83.6c2.5,0.8,4.4,2.8,5.6,5.1c0.8,1.6,1.2,3.3,0.8,5C66,95.6,64.6,97.1,63,98c-4.5,2.4-11.9,0.8-12.6-4.9
		C49.8,87.6,54.1,81.6,60,83.6z"/>
	<path class="st1" d="M16.9,31.3c-0.6,1.2-1.1,2.3-1.5,3.4c-1.2,3.1-1.6,6.6-0.8,9.8c0.4,1.5,1.1,3.1,2.6,3.7
		c1.8,0.8,3.9-0.4,5.2-1.8c2.2-2.5,2.9-5.6,3.9-8.6c1.2-3.7,2.6-7.3,4.3-10.8c0.5-1,1-2.1,0.5-3.1c-1.4-2.6-6.4-0.8-8.1,0.3
		C20.4,26,18.3,28.6,16.9,31.3z"/>
	<path class="st2" d="M35.1,27C50.2,8.9,74.9,13.2,79.4,14.4C84.1,15.8,92.2,20,94.6,26c2.7,6.7-2.3,13.9-3.4,15.5
		c-6.7,9.8-18.8,2.5-26.5,11.4c-4.9,5.6-0.7,11.5-7.6,19.4c-3.2,3.6-7,5.6-10.4,6.1c-7.2,1.1-15.1-8.3-18.2-16.2
		C23.8,50.6,27.2,36.4,35.1,27z"/>
	<g>
		<defs>
			<path id="SVGID_1_" d="M35.1,27C50.2,8.9,74.9,13.2,79.4,14.4C84.1,15.8,92.2,20,94.6,26c2.7,6.7-2.3,13.9-3.4,15.5
				c-6.7,9.8-18.8,2.5-26.5,11.4c-4.9,5.6-0.7,11.5-7.6,19.4c-3.2,3.6-7,5.6-10.4,6.1c-7.2,1.1-15.1-8.3-18.2-16.2
				C23.8,50.6,27.2,36.4,35.1,27z"/>
		</defs>
		<clipPath id="SVGID_2_">
			<use xlink:href="#SVGID_1_"  style="overflow:visible;"/>
		</clipPath>
	</g>
</g>
<g>
	<path class="st1" d="M110.1,92c0.7,0.6,1.6,0.8,2.4,0.8c1.7,0.1,3.4-0.5,4.8-1.4c2.4-1.5,4.1-3.9,4.9-6.6c0.2-0.6,0.3-1.3,0.2-1.9
		c-0.7-3.8-7.8-3.6-10.2-1.8C109.8,83.1,107.3,89.7,110.1,92z"/>
	<path class="st2" d="M128.3,42.1c0.4,2.1,1.6,3.9,2,6c0.6,2.8-0.3,5.7-1.4,8.3c-0.8,1.9-1.8,4.2-0.6,5.8c1.1,1.5,3.4,1.4,5.1,0.8
		c3.7-1.2,6.7-4.1,8.7-7.5c2-3.4,2.9-7.3,3.4-11.1c0.3-2.8,0.4-5.7-0.3-8.4c-0.7-2.7-2.4-5.3-4.9-6.6
		C133.1,25.5,127.3,35.9,128.3,42.1z"/>
	<path class="st2" d="M121.3,22.3c5.5,10.3,2.9,27-4.8,40.2c-3.8,6.5-18.1,28-36.2,25.2c-10.9-1.6-23.4-8.1-22.4-23.9
		c0.7-3,2.2-7.7,6-11.6c7.6-7.8,15.6-3.2,23.6-10c8.2-7,4.4-19.1,12.7-24.7C108.4,11.8,118.4,17,121.3,22.3z"/>
	<circle class="st0" cx="104.4" cy="6.4" r="4.7"/>
	<g>
		<defs>
			<path id="SVGID_3_" d="M121.3,22.3c5.5,10.3,2.9,27-4.8,40.2c-3.8,6.5-18.1,28-36.2,25.2c-10.9-1.6-23.4-8.1-22.4-23.9
				c0.7-3,2.2-7.7,6-11.6c7.6-7.8,15.6-3.2,23.6-10c8.2-7,4.4-19.1,12.7-24.7C108.4,11.8,118.4,17,121.3,22.3z"/>
		</defs>
		<clipPath id="SVGID_4_">
			<use xlink:href="#SVGID_3_"  style="overflow:visible;"/>
		</clipPath>
	</g>
</g>
<g>
	<g>
		
			<ellipse transform="matrix(0.685 -0.7285 0.7285 0.685 -16.6973 134.1913)" class="st2" cx="146.8" cy="86.4" rx="19.1" ry="19.1"/>
	</g>
	<g>
		<ellipse transform="matrix(0.685 -0.7285 0.7285 0.685 -15.6332 140.0782)" class="st3" cx="154.2" cy="88.1" rx="1.6" ry="1.6"/>
	</g>
	<g>
		<ellipse transform="matrix(0.685 -0.7285 0.7285 0.685 -11.9931 130)" class="st3" cx="144.3" cy="78.9" rx="1.6" ry="1.6"/>
	</g>
	<g>
		<path class="st3" d="M145.5,96.4c-2.3,0-4.5-0.9-6.2-2.5c-2.3-2.3-3.2-5.6-2.3-8.8c0.2-0.6,0.8-1,1.4-0.8c0.6,0.2,1,0.8,0.8,1.4
			c-0.7,2.3,0,4.8,1.7,6.5c1.8,1.7,4.4,2.3,6.8,1.5c0.6-0.2,1.2,0.1,1.5,0.7c0.2,0.6-0.1,1.2-0.7,1.5
			C147.5,96.2,146.5,96.4,145.5,96.4z"/>
	</g>
</g>
<g>
	<g>
		<path class="st2" d="M17.5,55.7c1.4,0,2.8,0.6,3.8,1.6c0.7,0.7,1.2,1.5,1.4,2.4c0.1,1-0.3,2.1-1,2.8c-1.8,2.1-6,2.7-7.4-0.2
			C13,59.7,14.1,55.8,17.5,55.7z"/>
	</g>
</g>
<g>
	<path class="st4" d="M11.2,78c-0.6,1.3-1.2,2.6-1.4,3.9c-0.2,1.4,0,2.9,0.8,4c1.3,1.9,4.1,2.5,6.3,1.6c2.2-0.9,3.7-3,4.4-5.2
		c0.7-2.2,0.7-4.6,0.5-7c-0.2-2.3-0.6-4.7-0.5-7c-3.6-0.9-7.8-1-11.5-0.8c-2.1,0.1-4.3,0.4-6.1,1.5c-1.8,1.1-3.1,3.2-2.7,5.3
		c0.4,2,2.2,3.4,4.2,4C7.1,78.8,9.2,78.2,11.2,78z"/>
</g>
</svg>
