<?xml version="1.0" encoding="utf-8"?>
<!-- Generator: Adobe Illustrator 21.1.0, SVG Export Plug-In . SVG Version: 6.00 Build 0)  -->
<svg version="1.1" id="OBJECTS" xmlns="http://www.w3.org/2000/svg" xmlns:xlink="http://www.w3.org/1999/xlink" x="0px" y="0px"
	 viewBox="0 0 142.5 88.6" style="enable-background:new 0 0 142.5 88.6;" xml:space="preserve">
<style type="text/css">
	.st0{fill:#F4F5F7;}
	.st1{fill:#FFFFFF;}
	.st2{display:none;}
	.st3{display:inline;fill:#8AC74B;}
	.st4{display:inline;fill:#FAA326;}
	.st5{display:inline;fill:#967DFF;}
</style>
<path class="st0" d="M31.1,15.6C46.2-2.5,71,1.8,75.5,3.1c4.8,1.3,12.8,5.5,15.2,11.5c2.7,6.7-2.3,13.9-3.4,15.5
	c-6.7,9.8-18.8,2.5-26.5,11.4C55.9,47,60.1,53,53.2,60.9c-3.2,3.6-7,5.6-10.4,6.1c-7.2,1.1-15.1-8.3-18.2-16.2
	C19.9,39.2,23.2,25,31.1,15.6z"/>
<path class="st0" d="M117.3,10.9c5.5,10.3,2.9,27-4.8,40.2c-3.8,6.5-18.1,28-36.2,25.2c-10.9-1.6-23.4-8.1-22.4-23.9
	c0.7-3,2.2-7.7,6-11.6c7.6-7.8,15.6-3.2,23.6-10c8.2-7,4.4-19.1,12.7-24.7C104.5,0.4,114.5,5.6,117.3,10.9z"/>
<g>
	<path class="st1" d="M104,83.9c-0.6,0-1.2-0.2-1.6-0.5c-0.7-0.5-1-1.3-1.1-2.3c-0.1-2.1,1.5-5.1,3.5-8.1
		c-5.6,4.2-11.9,7.8-15.8,7.4c-1.3-0.1-2.4-0.7-3-1.7c-1.9-2.9,1.8-8.6,6.3-13.8c-1,0.6-2,1.3-3.1,1.9c-4.8,2.9-8.9,3.2-11,0.6
		c-2.3-2.8-1.1-7.8,2.7-12c15.3-16.3,20.2-27.2,14.9-33.2c-3.2-3.6-7.7-5.4-12.4-4.7c-4.6,0.6-9,3.4-12.7,7.8
		c0.6,1.2,1.2,2.5,1.7,3.8c2.6,7.4-0.5,10.2-1.5,10.8c-1.8,1.2-4.2,1.1-5.9-0.3c-2-1.7-2.3-4.7-0.7-8c1.2-2.4,2.5-4.6,4-6.6
		c-3.8-6.2-9.1-7.9-12.3-8.4c-6-0.8-12.1,1.6-15.2,6c-2.4,3.4-2.6,7.6-0.4,11.8c2.3,4.5,7.6,9.7,12.6,14.7
		c6.4,6.3,11.9,11.7,11.8,15.9c0,1.2-0.5,2.2-1.4,3c-3.2,3-9.1,0.5-14.5-3.2c4.6,5.8,8.3,12.2,5.5,15.3c-0.6,0.7-1.5,1.1-2.6,1.1
		c0,0-0.1,0-0.1,0c-4,0-11-5.1-17.1-10.4c0.5,0.7,1.1,1.4,1.6,2.1c3.1,4.2,3.9,7.9,2.2,9.6c-3.1,3-11.3-2.5-17.6-7.5
		C3.4,61.1-3.9,35.4,5.4,20.3c0.3-0.5,0.9-0.6,1.4-0.3c0.5,0.3,0.6,0.9,0.3,1.4c-8.8,14.4-1.7,38.8,15.1,52.4
		c9.8,7.9,14,8.5,14.9,7.6c0.7-0.7,0.4-3.3-2.4-7c-5.8-7.8-11.8-14.6-11.9-14.7c-0.4-0.4-0.3-1,0.1-1.4c0.4-0.4,1-0.4,1.4,0
		c5.6,5.9,21.5,21.1,27.4,21.1c0,0,0,0,0.1,0c0.7,0,1-0.3,1.2-0.4c2.7-3.1-6.2-14.2-14.4-22.4c-1.2-1.1-2-1.9-2.3-2.2
		c-0.4-0.4-0.4-1,0-1.4c0.4-0.4,1-0.4,1.4,0c0.6,0.5,1.4,1.3,2.5,2.4c7.5,7,18.4,14.9,22,11.5c0.5-0.5,0.7-1,0.7-1.6
		c0-3.3-5.7-9-11.3-14.5c-5.2-5.1-10.5-10.4-13-15.2c-2.5-4.8-2.3-9.8,0.6-13.8c3.5-5,10.4-7.7,17.1-6.8c5.5,0.8,10.1,3.9,13.3,8.7
		c3.9-4.5,8.6-7.3,13.5-8c5.4-0.7,10.6,1.2,14.2,5.4c6.1,7,1.2,18.7-14.9,35.9c-3.4,3.7-4,7.6-2.7,9.3c1.4,1.7,4.5,1.3,8.4-1.1
		c5.8-3.5,9.7-6.6,12.1-8.6c1.2-1.2,2.3-2.1,2.9-2.7c0.4-0.4,1-0.3,1.4,0c0.4,0.4,0.4,1,0,1.4c-0.1,0.1-1.1,1.2-3.2,3
		C90.2,69.1,86.6,76.1,87.7,77.8c0.2,0.3,0.6,0.7,1.5,0.8c5,0.4,16.8-8.1,23.1-14.6c0.4-0.4,0.7-0.7,0.9-0.9c0.4-0.4,1-0.4,1.4,0
		c0.4,0.4,0.4,1,0,1.4c-0.3,0.3-0.5,0.6-0.8,0.9c-3.6,3.9-10.7,12.2-10.5,15.8c0,0.5,0.2,0.7,0.4,0.8c0.5,0.3,3.2-0.4,8.4-4.3
		c7.2-5.4,14.2-13.5,18.7-21.4c4.2-7.4,8.4-18.7,5.1-30.5c-0.2-0.5,0.2-1.1,0.7-1.2c0.5-0.1,1.1,0.2,1.2,0.7
		c6.9,24.3-15.3,48.2-27.1,55.9C107.8,83,105.5,83.9,104,83.9z M69.4,27.3c-1.2,1.7-2.3,3.5-3.2,5.5c-1.2,2.4-1.1,4.5,0.2,5.6
		c1,0.8,2.4,0.9,3.4,0.2c1.9-1.3,2.1-4.5,0.7-8.5C70.2,29,69.8,28.1,69.4,27.3z"/>
</g>
<g>
	<g>
		<defs>
			<path id="SVGID_1_" d="M31.1,15.6C46.2-2.5,71,1.8,75.5,3.1c4.8,1.3,12.8,5.5,15.2,11.5c2.7,6.7-2.3,13.9-3.4,15.5
				c-6.7,9.8-18.8,2.5-26.5,11.4C55.9,47,60.1,53,53.2,60.9c-3.2,3.6-7,5.6-10.4,6.1c-7.2,1.1-15.1-8.3-18.2-16.2
				C19.9,39.2,23.2,25,31.1,15.6z"/>
		</defs>
		<clipPath id="SVGID_2_">
			<use xlink:href="#SVGID_1_"  style="overflow:visible;"/>
		</clipPath>
	</g>
</g>
<g>
	<path class="st0" d="M124.4,30.7c0.4,2.1,1.6,3.9,2,6c0.6,2.8-0.3,5.7-1.4,8.3c-0.8,1.9-1.8,4.2-0.6,5.8c1.1,1.5,3.4,1.4,5.1,0.8
		c3.7-1.2,6.7-4.1,8.7-7.5c2-3.4,2.9-7.3,3.4-11.1c0.3-2.8,0.4-5.7-0.3-8.4c-0.7-2.7-2.4-5.3-4.9-6.6
		C129.2,14.1,123.4,24.5,124.4,30.7z"/>
	<g>
		<defs>
			<path id="SVGID_3_" d="M117.3,10.9c5.5,10.3,2.9,27-4.8,40.2c-3.8,6.5-18.1,28-36.2,25.2c-10.9-1.6-23.4-8.1-22.4-23.9
				c0.7-3,2.2-7.7,6-11.6c7.6-7.8,15.6-3.2,23.6-10c8.2-7,4.4-19.1,12.7-24.7C104.5,0.4,114.5,5.6,117.3,10.9z"/>
		</defs>
		<clipPath id="SVGID_4_">
			<use xlink:href="#SVGID_3_"  style="overflow:visible;"/>
		</clipPath>
	</g>
</g>
<g class="st2">
	<path class="st3" d="M56.1,72.2c2.5,0.8,4.4,2.8,5.6,5.1c0.8,1.6,1.2,3.3,0.8,5c-0.4,1.8-1.7,3.4-3.4,4.3
		c-4.5,2.4-11.9,0.8-12.6-4.9C45.9,76.3,50.2,70.3,56.1,72.2z"/>
	<circle class="st4" cx="11.8" cy="63.2" r="6.9"/>
	<path class="st5" d="M13,19.9c-0.6,1.2-1.1,2.3-1.5,3.4c-1.2,3.1-1.6,6.6-0.8,9.8c0.4,1.5,1.1,3.1,2.6,3.7c1.8,0.8,3.9-0.4,5.2-1.8
		c2.2-2.5,2.9-5.6,3.9-8.6c1.2-3.7,2.6-7.3,4.3-10.8c0.5-1,1-2.1,0.5-3.1c-1.4-2.6-6.4-0.8-8.1,0.3C16.4,14.6,14.4,17.2,13,19.9z"/>
</g>
<g>
	<path class="st0" d="M56.1,72.2c2.5,0.8,4.4,2.8,5.6,5.1c0.8,1.6,1.2,3.3,0.8,5c-0.4,1.8-1.7,3.4-3.4,4.3
		c-4.5,2.4-11.9,0.8-12.6-4.9C45.9,76.3,50.2,70.3,56.1,72.2z"/>
	<circle class="st0" cx="11.8" cy="63.2" r="6.9"/>
	<path class="st0" d="M13,19.9c-0.6,1.2-1.1,2.3-1.5,3.4c-1.2,3.1-1.6,6.6-0.8,9.8c0.4,1.5,1.1,3.1,2.6,3.7c1.8,0.8,3.9-0.4,5.2-1.8
		c2.2-2.5,2.9-5.6,3.9-8.6c1.2-3.7,2.6-7.3,4.3-10.8c0.5-1,1-2.1,0.5-3.1c-1.4-2.6-6.4-0.8-8.1,0.3C16.4,14.6,14.4,17.2,13,19.9z"/>
</g>
</svg>
