<svg version="1.1" id="" xmlns="http://www.w3.org/2000/svg" xmlns:xlink="http://www.w3.org/1999/xlink" x="0px" y="0px"
    viewBox="0 0 1600 386" style="enable-background:new 0 0 1600 386;" xml:space="preserve">
    <style type="text/css">
        .logost01{fill:#9CBF12;}
        .logost101{fill:#A0C10A;}
        .logost2{font-family:"MYRIADPROREGULAR";}
        .logost3{font-size:71.9418px;}
        .logost4{fill:#0E5625;}
    </style>
    <g>
        <g id="">
            <g>
                <path class="logost01" d="M157.7,214.4c-12.5-4.6-18.2-13.3-17.2-25.1c0.2-2.3,0.1-4.6,0-6.8c0-3.5-1.5-5.1-5.2-6
                    c-27.4-6.4-45.9-23.7-53.2-50.3c-7.7-28.1,0.3-53,22.6-72.9c11.8-10.6,22.7-22.1,34-33.2c3.1-3,6-6.2,9.2-9.2
                    c3.5-3.3,5.8-0.6,8.1,1.8c9.6,10,18.8,20.3,28.7,30c11,10.8,21.2,22.3,28.4,35.8c6.7,12.7,8.6,26.3,5.7,41
                    c-3.1,15.5-9.7,28.3-20.9,39.1c-8.7,8.4-18.8,14.3-30.7,16.9c-7.7,1.7-7.8,2.2-7.4,10.1c0.4,7.7,0.2,15.4,0,23.1
                    C159.5,210.6,158.3,212.5,157.7,214.4z M154.5,57c0,22,0,42.3,0,62.6c0.4,0.3,0.8,0.7,1.2,1c4.1-3.8,8-7.7,12.3-11.1
                    c1.4-1.1,3.9-0.9,5.8-1.3c-0.2,1.9,0.2,4.1-0.7,5.6c-4.1,6.7-8,13.5-14.8,18.3c-2.2,1.6-3.6,5.1-4.2,8c-0.8,4.2,1.7,6.5,5.7,4.3
                    c6.1-3.2,12.4-6.4,17.5-10.9c11.3-9.8,14.6-30.7,6.3-43.1c-5.6-8.4-12.9-15.7-19.6-23.3C161.3,63.9,158.3,61,154.5,57z M124.7,85
                    c0.4-0.3,0.8-0.5,1.2-0.8c5.6,4.7,11.2,9.4,17.9,15.1c0-13.5,0-25.7,0-39.7c-2.6,2.4-4,3.5-5.3,4.7c-4.6,4.5-8.9,9.4-13.8,13.6
                    c-20.2,17.2-18.5,56,13,66.4c4.9,1.6,6.4,0.9,6.4-4.1c0.1-8,0.3-16-0.1-23.9c-0.1-2.4-1.8-5.3-3.7-6.8c-7-5.4-11.2-12.7-15-20.3
                    C124.7,87.9,124.9,86.4,124.7,85z"/>
            </g>
        </g>
        <text transform="matrix(1 0 0 1 507.7576 222.688)"><tspan x="0" y="0" class="logost101 logost2 logost3">Association for the</tspan><tspan x="0" y="86.3" class="logost01 logost2 logost3">protection of the environment</tspan></text>
        <path class="logost4" d="M223.6,260.5c4.6,0,9.2-0.4,13.7,0.2c2.3,0.3,4.3,2.2,6.4,3.4c-1.6,1.3-3,3-4.7,3.9
            c-7.2,3.6-14.8,3.2-22.6,2.6c-2.9-0.2-6.8,1.2-8.9,3.2c-16.3,15.5-16.2,15.6-16,38.1c0.2,19.8,0.2,39.5,0.2,59.3c0,1.5-0.2,3-0.5,6
            c-2.6-1.4-4.9-2.1-6.4-3.6c-7.9-8-15.7-15.9-23.1-24.3c-2.1-2.4-3.8-6.2-3.8-9.4c-0.3-31.9-1.1-63.9,0.1-95.8
            c1.1-30.2,14.1-54.4,43.2-66.7c8.6-3.7,18.6-4.7,28.1-5.6c9.1-0.9,18.4,0,27.7-0.2c11.4-0.2,22.7-0.8,34.1-1.2c7.9-0.3,9,0.6,9,8.5
            c0,21.7,0.7,43.4-0.2,65c-0.7,17.7-7.1,33.5-20,46.6c-14.6,14.9-32,22.4-52.7,22.2c-15.5-0.2-16.7-1.8-13.5-16.3
            c1-4.6,2.3-9.1,3.1-13.8c0.6-3.3,2.5-4.6,5.1-3.5c10.9,4.3,20-0.5,28.6-5.9c8.8-5.5,14.1-13.8,16.2-24.1c2.3-11,1.5-22,0.1-33
            c-14.9,14.3-29.6,28.3-44.4,42.4C222.9,259,223.3,259.8,223.6,260.5z M190.5,273.6c0.5,0.3,1,0.6,1.6,0.9c1.6-1.2,3.3-2.2,4.6-3.6
            c6.3-6.3,12.5-12.8,18.9-18.9c3.2-3,3.9-6.3,4.1-10.6c0.2-7.8,1.2-15.7,2.4-23.4c0.2-1.5,2.6-2.7,3.9-4.1c1.1,1.5,2.8,3,3.1,4.7
            c0.6,3.3,0.3,6.8,0.4,10.2c0,2.3,0,4.6,0,6.8c0.6,0.2,1.2,0.4,1.8,0.6c10.5-10.5,21-21,32.1-32.1c-14.1,0-26.4-0.7-38.6,0.2
            c-14.6,1-29.5,12.7-31.1,26C191.9,244.6,191.5,259.1,190.5,273.6z"/>
        <path class="logost4" d="M389.7,245.3c-4.9,0-9.9,0.2-14.8-0.1c-1.6-0.1-4.5-1.2-4.6-2.1c-0.1-1.7,0.8-4.1,2.1-5.2
            c9.3-7.4,18.7-14.6,28.2-21.8c5-3.9,5-5.2-0.9-8c-23.6-11.3-49.2-0.2-55.4,24.8c-4.5,18.4,3.2,34.8,22.2,44.2
            c20.1,9.9,45.3-4,51.1-23.3c1.6-5.5,5.1-6.8,9.9-7.3c5.4-0.6,10.8-1.3,16.1-2.5c6.8-1.6,10,1,8.1,7.8c-2,7.4-4.2,14.9-7.6,21.8
            c-12.7,26-41.8,42.3-70.5,38.7c-27.7-3.4-51.3-22.9-60.2-52c-8.4-27.8,5-61.1,27.6-76.5c28.8-19.6,66.3-15.9,90.6,8.9
            c4.8,4.9,9.8,9.6,14.6,14.4c4.6,4.5,4,6.2-1.3,9.9c-7.7,5.4-15,11.4-22.4,17.2c-3.7,2.9-7.2,6.1-11.1,8.8c-1.9,1.3-4.5,1.9-6.8,2.1
            c-4.9,0.3-9.9,0.1-14.8,0.1C389.7,245.1,389.7,245.2,389.7,245.3z"/>
        <path class="logost4" d="M113.4,272.3c0-9.9-0.1-19.8,0-29.7c0.3-23.6-17-40.5-40.6-39.6c-14.4,0.6-29.7,13.2-33,25.3
            c-5.6,20.5-1.1,35.3,16.9,46.5c7.1,4.5,15.3,7.7,24.1,4.5c4.8-1.7,6.6,0.6,7.6,4.7c1.7,7.3,3.5,14.6,5.2,21.9
            c0.9,3.7-1.7,4.6-4.4,5.2c-12,2.6-23.9,1.9-35.2-2.3c-21.7-7.9-37.4-22.4-45.1-44.5c-4.2-11.9-5.2-24-2.3-36.8
            c6.4-29,24.1-47.1,52.1-54.4c22.5-5.8,43.2-0.6,61.6,14.4c11.3,9.2,18.1,21.1,23.1,34.2c1.8,4.8,2.2,10.4,2.2,15.6
            c0.1,18.6-0.3,37.2-0.4,55.8c0,4,0.4,7.9,0.8,11.9c0.6,5.7-1,7.6-6.7,7.5c-6.3-0.1-12.5-0.2-18.8-0.2c-6.3,0.1-7.4-0.9-7.3-7.1
            c0-11,0-22,0-33.1C113.2,272.3,113.3,272.3,113.4,272.3z"/>
    </g>
</svg>