<?xml version="1.0" encoding="utf-8"?>
<!-- Generator: Adobe Illustrator 21.1.0, SVG Export Plug-In . SVG Version: 6.00 Build 0)  -->
<svg version="1.1" id="Isolation_Mode" xmlns="http://www.w3.org/2000/svg" xmlns:xlink="http://www.w3.org/1999/xlink" x="0px"
	 y="0px" viewBox="0 0 1296.1 735.1" style="enable-background:new 0 0 1296.1 735.1;" xml:space="preserve">
	<style type="text/css">
		.dsdst0{fill:#C8C1E1;}
	</style>
	<g>
		<path class="dsdst0" d="M1136.7,421.8c0,0-11-24.6-38.9-21.5c-27.9,3.1-24.6,27.7-37.8,25.4c-13.3-2.3-31.9,0-35.8,15.4
			c-4,15.4-21.9,6.9-22.6,20c-0.7,13.1,20.6,22.4,45.1,10.8c24.6-11.6,36.5,9,71,5.3c34.5-3.7,38.8-8.3,59.2-6
			c20.4,2.3,19.9-13.9,10.7-24.7C1178.3,435.7,1140.7,436.7,1136.7,421.8z"/>
	</g>
	<g>
		<path class="dsdst0" d="M1215.4,38.6c0,0-14.3-32-50.6-28c-36.2,4-31.9,36.1-49.2,33.1c-17.3-3-41.4,0-46.6,20c-5.2,20-28.5,9-29.3,26
			c-0.9,17,26.7,29.1,58.7,14c31.9-15,47.5,11.7,92.3,6.8c44.9-4.8,50.4-10.8,77-7.8c26.6,3,25.9-18.1,13.8-32.1
			C1269.5,56.6,1220.6,58,1215.4,38.6z"/>
	</g>
	<g>
		<path class="dsdst0" d="M131.6,613.3c0,0,24.3-49.3,85.6-43.1c61.4,6.2,54.1,55.6,83.3,50.9c29.2-4.6,70.1,0,78.9,30.9
			c8.8,30.9,48.2,13.9,49.7,40.1c1.5,26.2-45.3,44.7-99.4,21.6c-54.1-23.1-80.4,18-156.4,10.5c-76-7.4-85.4-16.7-130.4-12.1
			c-45,4.6-43.9-27.9-23.5-49.5C40,641.1,122.8,643.2,131.6,613.3z"/>
	</g>
	<g>
		<path class="dsdst0" d="M387,476.4c0,0,11.9-23.9,42-20.9c30.1,3,26.5,27,40.9,24.7c14.3-2.2,34.4,0,38.7,15
			c4.3,15,23.7,6.7,24.4,19.5c0.7,12.7-22.2,21.7-48.8,10.5c-26.5-11.2-39.5,8.7-76.8,5.1c-37.3-3.6-41.9-8.1-64-5.9
			c-22.1,2.2-21.6-13.5-11.5-24C342,489.9,382.6,490.9,387,476.4z"/>
	</g>
	<g>
		<path class="dsdst0" d="M185.1,300c0,0,14.2-28.5,50.1-24.9c35.9,3.6,31.7,32.1,48.8,29.5c17.1-2.7,41.1,0,46.2,17.9
			c5.1,17.9,28.2,8,29.1,23.2c0.9,15.2-26.5,25.9-58.2,12.5c-31.7-13.4-47.1,10.4-91.5,6.1c-44.5-4.3-50-9.7-76.3-7
			c-26.3,2.7-25.7-16.1-13.7-28.6C131.5,316.1,179.9,317.3,185.1,300z"/>
	</g>
</svg>
