<?xml version="1.0" encoding="utf-8"?>
<!-- Generator: Adobe Illustrator 21.1.0, SVG Export Plug-In . SVG Version: 6.00 Build 0)  -->
			<svg version="1.1" id="OBJECTS" xmlns="http://www.w3.org/2000/svg" xmlns:xlink="http://www.w3.org/1999/xlink" x="0px" y="0px"
				viewBox="0 0 397.3 136" style="enable-background:new 0 0 397.3 136;" xml:space="preserve">
					<style type="text/css">
						.sust0{opacity:0.3;fill:url(#SVGID_1_);}
						.sust1{opacity:0.45;fill:url(#SVGID_2_);}
						.subst2{fill:#FFFFFF;}
						.sust3{opacity:0.45;fill:url(#SVGID_3_);}
						.sust4{opacity:0.3;fill:url(#SVGID_4_);}
					</style>
					<linearGradient id="SVGID_1_" gradientUnits="userSpaceOnUse" x1="194.4634" y1="18.4512" x2="206.157" y2="152.1101">
						<stop  offset="0" style="stop-color:#2390FF"/>
						<stop  offset="0.9146" style="stop-color:#2390FF;stop-opacity:0"/>
					</linearGradient>
					<path class="sust0" d="M-0.1,61.9C14,48.1,37.3,39.4,59,43.5c14.9,2.9,28.3,9.7,41.9,15.4c13.7,5.8,28.7,10.7,43.9,9.3
						c33.4-3.1,54.4-34.3,87.4-39.2c35.2-5.2,71.8,21.3,104.6,9.6c23.7-8.5,35.4-34.4,60.9-38v134.7H-0.1V61.9z"/>
					<linearGradient id="SVGID_2_" gradientUnits="userSpaceOnUse" x1="201.4332" y1="157.4766" x2="201.4332" y2="44.4326">
						<stop  offset="8.544150e-02" style="stop-color:#2390FF;stop-opacity:0"/>
						<stop  offset="1" style="stop-color:#2390FF"/>
					</linearGradient>
					<path class="sust1" d="M30.9,71.9c18.3,3,28.5-0.1,43.7-8.3c10.2-5.5,18.9-13.4,31-15.8c14.9-2.9,30.3,3.4,41.7,11.1
						c11.5,7.7,21.2,17.1,34.7,22.7c28,11.5,63.8,2.9,89.1-11.8c10.9-6.4,20.8-13.8,32.7-19.1c11.9-5.3,26.7-8.2,39.6-4.6
						C354,49,361.9,56,372,59.8v97.7H30.9V71.9z"/>
					<path class="subst2" d="M216.4-66.5H198c-0.9,0-1.7-0.8-1.7-1.7l0,0c0-0.9,0.8-1.7,1.7-1.7h18.3c0.9,0,1.7,0.8,1.7,1.7l0,0
						C218.1-67.3,217.3-66.5,216.4-66.5z"/>
					<g>
						
							<linearGradient id="SVGID_3_" gradientUnits="userSpaceOnUse" x1="9925.0625" y1="-5429.936" x2="9925.0625" y2="-5575.2422" gradientTransform="matrix(-1 0 0 -1 10126.4951 -5694.5708)">
							<stop  offset="8.544150e-02" style="stop-color:#2390FF;stop-opacity:0"/>
							<stop  offset="1" style="stop-color:#2390FF"/>
						</linearGradient>
						<path class="sust3" d="M372-173.9c-18.3-6-28.5,0.2-43.7,16.5c-10.2,11-18.9,26.6-31,31.3c-14.9,5.8-30.3-6.7-41.7-22
							c-11.5-15.3-21.2-34-34.7-45c-28-22.9-63.8-5.7-89.1,23.5c-10.9,12.6-20.8,27.4-32.7,37.9c-11.9,10.5-26.7,16.3-39.6,9.1
							c-10.6-5.9-18.5-19.7-28.6-27.3v-114.8H372V-173.9z"/>
						
							<linearGradient id="SVGID_4_" gradientUnits="userSpaceOnUse" x1="243.8405" y1="-5463.2266" x2="243.8405" y2="-5548.9351" gradientTransform="matrix(1 0 0 -1 0 -5694.5708)">
							<stop  offset="0" style="stop-color:#2390FF"/>
							<stop  offset="0.9146" style="stop-color:#2390FF;stop-opacity:0"/>
						</linearGradient>
						<path class="sust4" d="M50.5-187.9c20.8-4.6,32.3,0.1,49.6,12.8c11.6,8.5,21.4,20.6,35.2,24.3c16.9,4.5,34.3-5.2,47.3-17
							c13-11.8,24-26.3,39.3-34.9c31.7-17.8,72.4-4.4,101,18.2c12.4,9.8,23.6,21.3,37,29.4c13.5,8.1,30.2,12.7,44.9,7.1
							c12.1-4.6,20.9-15.3,32.4-21.2v-62H50.5V-187.9z"/>
					</g>
			</svg>
